<mxfile modified="2024-02-20T15:16:52.658Z" host="app.diagrams.net" agent="Mozilla/5.0 (Windows NT 10.0; Win64; x64) AppleWebKit/537.36 (KHTML, like Gecko) Chrome/120.0.0.0 Safari/537.36 Edg/120.0.0.0" etag="lN_IzpN2_8YBv4kwwR0z" version="22.1.21" type="github">
  <diagram id="Ht1M8jgEwFfnCIfOTk4-" name="Page-1">
    <mxGraphModel dx="3347" dy="1380" grid="1" gridSize="10" guides="1" tooltips="1" connect="1" arrows="1" fold="1" page="1" pageScale="1" pageWidth="827" pageHeight="1169" math="0" shadow="0">
      <root>
        <mxCell id="0" />
        <mxCell id="1" parent="0" />
        <mxCell id="CK9dQ3o06qtgQGBDyu8h-31" value="" style="rounded=1;whiteSpace=wrap;html=1;shadow=0;dashed=1;fontSize=12;fontColor=#00994D;strokeColor=#994C00;strokeWidth=2;fillColor=none;arcSize=7;" vertex="1" parent="1">
          <mxGeometry x="469.28" y="298" width="480" height="322" as="geometry" />
        </mxCell>
        <mxCell id="CK9dQ3o06qtgQGBDyu8h-110" value="" style="rounded=1;whiteSpace=wrap;html=1;shadow=0;dashed=1;fontSize=12;fontColor=#00994D;strokeColor=#6666ff;strokeWidth=2;fillColor=none;arcSize=7;" vertex="1" parent="1">
          <mxGeometry x="959.41" y="105" width="477.27" height="185" as="geometry" />
        </mxCell>
        <mxCell id="HLplRHQwI1kbwizsAA59-74" value="" style="rounded=1;whiteSpace=wrap;html=1;shadow=0;dashed=1;fontSize=12;fontColor=#00994D;strokeColor=#003333;strokeWidth=2;fillColor=none;arcSize=7;" parent="1" vertex="1">
          <mxGeometry x="85.75" y="630" width="1354.25" height="170" as="geometry" />
        </mxCell>
        <mxCell id="IFNf2uhesNQWuGmL52Zz-282" value="" style="rounded=1;whiteSpace=wrap;html=1;shadow=0;dashed=1;fontSize=12;fontColor=#00994D;strokeColor=#FF3399;strokeWidth=2;fillColor=none;arcSize=7;" parent="1" vertex="1">
          <mxGeometry x="85.75" y="810" width="1354.25" height="160" as="geometry" />
        </mxCell>
        <mxCell id="IFNf2uhesNQWuGmL52Zz-185" value="" style="rounded=1;whiteSpace=wrap;html=1;shadow=0;dashed=1;fontSize=12;fontColor=#00994D;strokeColor=#00994D;strokeWidth=2;fillColor=none;arcSize=7;" parent="1" vertex="1">
          <mxGeometry x="470" y="105" width="480" height="185" as="geometry" />
        </mxCell>
        <mxCell id="IFNf2uhesNQWuGmL52Zz-194" value="" style="rounded=1;whiteSpace=wrap;html=1;shadow=0;dashed=1;fontSize=12;fontColor=#00994D;strokeColor=#FF8000;strokeWidth=2;fillColor=none;arcSize=7;" parent="1" vertex="1">
          <mxGeometry x="959.41" y="298" width="479.25" height="122" as="geometry" />
        </mxCell>
        <mxCell id="IFNf2uhesNQWuGmL52Zz-183" value="" style="rounded=1;whiteSpace=wrap;html=1;shadow=0;dashed=1;fontSize=12;fontColor=#00994D;strokeColor=#990099;strokeWidth=2;fillColor=none;arcSize=7;" parent="1" vertex="1">
          <mxGeometry x="90" y="105" width="370" height="515" as="geometry" />
        </mxCell>
        <mxCell id="IFNf2uhesNQWuGmL52Zz-66" value="" style="rounded=1;whiteSpace=wrap;html=1;shadow=0;strokeColor=#F19C99;fillColor=none;dashed=1;strokeWidth=2;arcSize=11;" parent="1" vertex="1">
          <mxGeometry x="-95" y="105" width="150" height="715" as="geometry" />
        </mxCell>
        <mxCell id="IFNf2uhesNQWuGmL52Zz-21" value="" style="edgeStyle=orthogonalEdgeStyle;rounded=0;orthogonalLoop=1;jettySize=auto;html=1;fontSize=13;" parent="1" source="IFNf2uhesNQWuGmL52Zz-1" target="IFNf2uhesNQWuGmL52Zz-6" edge="1">
          <mxGeometry relative="1" as="geometry" />
        </mxCell>
        <mxCell id="IFNf2uhesNQWuGmL52Zz-1" value="CBS" style="rounded=1;whiteSpace=wrap;html=1;fillColor=#fff2cc;strokeColor=#000000;fontSize=13;" parent="1" vertex="1">
          <mxGeometry x="-45" y="776" width="50" height="30" as="geometry" />
        </mxCell>
        <mxCell id="IFNf2uhesNQWuGmL52Zz-2" value="" style="whiteSpace=wrap;html=1;aspect=fixed;fillColor=#3333FF;strokeColor=#000000;rounded=0;shadow=0;" parent="1" vertex="1">
          <mxGeometry x="-65" y="840" width="60" height="60" as="geometry" />
        </mxCell>
        <mxCell id="IFNf2uhesNQWuGmL52Zz-3" value="" style="whiteSpace=wrap;html=1;aspect=fixed;fillColor=#00FF00;strokeColor=#000000;rounded=0;" parent="1" vertex="1">
          <mxGeometry x="-55" y="850" width="60" height="60" as="geometry" />
        </mxCell>
        <mxCell id="IFNf2uhesNQWuGmL52Zz-4" value="" style="whiteSpace=wrap;html=1;aspect=fixed;fillColor=#FF0000;strokeColor=#000000;rounded=0;" parent="1" vertex="1">
          <mxGeometry x="-45" y="860" width="60" height="60" as="geometry" />
        </mxCell>
        <mxCell id="IFNf2uhesNQWuGmL52Zz-47" style="edgeStyle=orthogonalEdgeStyle;rounded=0;orthogonalLoop=1;jettySize=auto;html=1;exitX=0.5;exitY=0;exitDx=0;exitDy=0;entryX=0.5;entryY=1;entryDx=0;entryDy=0;fontSize=13;" parent="1" source="IFNf2uhesNQWuGmL52Zz-5" target="IFNf2uhesNQWuGmL52Zz-7" edge="1">
          <mxGeometry relative="1" as="geometry" />
        </mxCell>
        <mxCell id="IFNf2uhesNQWuGmL52Zz-5" value="&lt;font color=&quot;#ffffff&quot;&gt;C3CA_1&lt;/font&gt;" style="rounded=1;whiteSpace=wrap;html=1;fillColor=#6666FF;strokeColor=#000000;fontSize=13;" parent="1" vertex="1">
          <mxGeometry x="-45" y="676" width="50" height="30" as="geometry" />
        </mxCell>
        <mxCell id="IFNf2uhesNQWuGmL52Zz-46" style="edgeStyle=orthogonalEdgeStyle;rounded=0;orthogonalLoop=1;jettySize=auto;html=1;exitX=0.5;exitY=0;exitDx=0;exitDy=0;entryX=0.5;entryY=1;entryDx=0;entryDy=0;fontSize=13;" parent="1" source="IFNf2uhesNQWuGmL52Zz-6" target="IFNf2uhesNQWuGmL52Zz-5" edge="1">
          <mxGeometry relative="1" as="geometry" />
        </mxCell>
        <mxCell id="IFNf2uhesNQWuGmL52Zz-6" value="CBS" style="rounded=1;whiteSpace=wrap;html=1;fillColor=#fff2cc;strokeColor=#000000;fontSize=13;" parent="1" vertex="1">
          <mxGeometry x="-45" y="726" width="50" height="30" as="geometry" />
        </mxCell>
        <mxCell id="IFNf2uhesNQWuGmL52Zz-48" style="edgeStyle=orthogonalEdgeStyle;rounded=0;orthogonalLoop=1;jettySize=auto;html=1;exitX=0.5;exitY=0;exitDx=0;exitDy=0;entryX=0.5;entryY=1;entryDx=0;entryDy=0;fontSize=13;" parent="1" edge="1">
          <mxGeometry relative="1" as="geometry">
            <mxPoint x="-20" y="614" as="targetPoint" />
            <mxPoint x="-20" y="644" as="sourcePoint" />
          </mxGeometry>
        </mxCell>
        <mxCell id="IFNf2uhesNQWuGmL52Zz-7" value="CBS" style="rounded=1;whiteSpace=wrap;html=1;fillColor=#fff2cc;strokeColor=#000000;fontSize=13;" parent="1" vertex="1">
          <mxGeometry x="-45" y="630" width="50" height="30" as="geometry" />
        </mxCell>
        <mxCell id="IFNf2uhesNQWuGmL52Zz-80" style="edgeStyle=orthogonalEdgeStyle;rounded=0;orthogonalLoop=1;jettySize=auto;html=1;exitX=1;exitY=0.5;exitDx=0;exitDy=0;fontSize=13;fontColor=#3399FF;" parent="1" source="IFNf2uhesNQWuGmL52Zz-8" target="IFNf2uhesNQWuGmL52Zz-79" edge="1">
          <mxGeometry relative="1" as="geometry" />
        </mxCell>
        <mxCell id="IFNf2uhesNQWuGmL52Zz-8" value="SPPF" style="rounded=1;whiteSpace=wrap;html=1;fillColor=#99FFCC;strokeColor=#000000;fontSize=13;" parent="1" vertex="1">
          <mxGeometry x="-45" y="207" width="50" height="30" as="geometry" />
        </mxCell>
        <mxCell id="IFNf2uhesNQWuGmL52Zz-142" style="edgeStyle=orthogonalEdgeStyle;rounded=0;orthogonalLoop=1;jettySize=auto;html=1;exitX=1;exitY=0.5;exitDx=0;exitDy=0;fontSize=12;fontColor=#00994D;entryX=0;entryY=0.5;entryDx=0;entryDy=0;" parent="1" source="IFNf2uhesNQWuGmL52Zz-9" target="IFNf2uhesNQWuGmL52Zz-33" edge="1">
          <mxGeometry relative="1" as="geometry">
            <mxPoint x="685.75" y="144.9565217391305" as="targetPoint" />
          </mxGeometry>
        </mxCell>
        <mxCell id="IFNf2uhesNQWuGmL52Zz-9" value="Conv2d" style="rounded=1;whiteSpace=wrap;html=1;fillColor=#66CC00;strokeColor=#000000;" parent="1" vertex="1">
          <mxGeometry x="605.75" y="140" width="50" height="30" as="geometry" />
        </mxCell>
        <mxCell id="IFNf2uhesNQWuGmL52Zz-120" style="edgeStyle=orthogonalEdgeStyle;rounded=0;orthogonalLoop=1;jettySize=auto;html=1;exitX=0.5;exitY=0;exitDx=0;exitDy=0;entryX=0.5;entryY=1;entryDx=0;entryDy=0;fontSize=12;fontColor=#3399FF;" parent="1" source="IFNf2uhesNQWuGmL52Zz-10" target="IFNf2uhesNQWuGmL52Zz-109" edge="1">
          <mxGeometry relative="1" as="geometry" />
        </mxCell>
        <mxCell id="IFNf2uhesNQWuGmL52Zz-10" value="CBS" style="rounded=1;whiteSpace=wrap;html=1;fillColor=#fff2cc;strokeColor=#000000;" parent="1" vertex="1">
          <mxGeometry x="315" y="534" width="50" height="30" as="geometry" />
        </mxCell>
        <mxCell id="IFNf2uhesNQWuGmL52Zz-123" style="edgeStyle=orthogonalEdgeStyle;rounded=0;orthogonalLoop=1;jettySize=auto;html=1;exitX=0.5;exitY=0;exitDx=0;exitDy=0;entryX=0.5;entryY=1;entryDx=0;entryDy=0;fontSize=12;fontColor=#3399FF;" parent="1" target="IFNf2uhesNQWuGmL52Zz-107" edge="1">
          <mxGeometry relative="1" as="geometry">
            <mxPoint x="340" y="290" as="sourcePoint" />
          </mxGeometry>
        </mxCell>
        <mxCell id="IFNf2uhesNQWuGmL52Zz-11" value="CBS" style="rounded=1;whiteSpace=wrap;html=1;fillColor=#fff2cc;strokeColor=#000000;" parent="1" vertex="1">
          <mxGeometry x="315" y="280" width="50" height="30" as="geometry" />
        </mxCell>
        <mxCell id="IFNf2uhesNQWuGmL52Zz-96" style="edgeStyle=orthogonalEdgeStyle;rounded=0;orthogonalLoop=1;jettySize=auto;html=1;exitX=0.5;exitY=1;exitDx=0;exitDy=0;entryX=0.5;entryY=0;entryDx=0;entryDy=0;fontSize=13;fontColor=#3399FF;" parent="1" source="IFNf2uhesNQWuGmL52Zz-12" target="IFNf2uhesNQWuGmL52Zz-83" edge="1">
          <mxGeometry relative="1" as="geometry" />
        </mxCell>
        <mxCell id="HLplRHQwI1kbwizsAA59-13" style="edgeStyle=orthogonalEdgeStyle;rounded=0;orthogonalLoop=1;jettySize=auto;html=1;exitX=1;exitY=0.5;exitDx=0;exitDy=0;entryX=0;entryY=0.5;entryDx=0;entryDy=0;fontSize=15;fontColor=#FFFFFF;" parent="1" source="IFNf2uhesNQWuGmL52Zz-12" target="IFNf2uhesNQWuGmL52Zz-109" edge="1">
          <mxGeometry relative="1" as="geometry">
            <Array as="points" />
          </mxGeometry>
        </mxCell>
        <mxCell id="IFNf2uhesNQWuGmL52Zz-12" value="CBS" style="rounded=1;whiteSpace=wrap;html=1;fillColor=#fff2cc;strokeColor=#000000;" parent="1" vertex="1">
          <mxGeometry x="130" y="484" width="50" height="30" as="geometry" />
        </mxCell>
        <mxCell id="IFNf2uhesNQWuGmL52Zz-91" style="edgeStyle=orthogonalEdgeStyle;rounded=0;orthogonalLoop=1;jettySize=auto;html=1;exitX=0.5;exitY=1;exitDx=0;exitDy=0;entryX=0.5;entryY=0;entryDx=0;entryDy=0;fontSize=13;fontColor=#3399FF;" parent="1" source="IFNf2uhesNQWuGmL52Zz-13" target="IFNf2uhesNQWuGmL52Zz-82" edge="1">
          <mxGeometry relative="1" as="geometry">
            <mxPoint x="155" y="414" as="sourcePoint" />
          </mxGeometry>
        </mxCell>
        <mxCell id="IFNf2uhesNQWuGmL52Zz-13" value="Concat" style="rounded=1;whiteSpace=wrap;html=1;fillColor=#FFD966;strokeColor=#000000;" parent="1" vertex="1">
          <mxGeometry x="115" y="360" width="80" height="30" as="geometry" />
        </mxCell>
        <mxCell id="IFNf2uhesNQWuGmL52Zz-52" style="edgeStyle=orthogonalEdgeStyle;rounded=0;orthogonalLoop=1;jettySize=auto;html=1;exitX=0.5;exitY=0;exitDx=0;exitDy=0;entryX=0.5;entryY=1;entryDx=0;entryDy=0;fontSize=13;" parent="1" source="IFNf2uhesNQWuGmL52Zz-14" edge="1">
          <mxGeometry relative="1" as="geometry">
            <mxPoint x="-20.000000000000227" y="290" as="targetPoint" />
          </mxGeometry>
        </mxCell>
        <mxCell id="IFNf2uhesNQWuGmL52Zz-14" value="CBS" style="rounded=1;whiteSpace=wrap;html=1;fillColor=#fff2cc;strokeColor=#000000;fontSize=13;" parent="1" vertex="1">
          <mxGeometry x="-45" y="310" width="50" height="30" as="geometry" />
        </mxCell>
        <mxCell id="IFNf2uhesNQWuGmL52Zz-50" style="edgeStyle=orthogonalEdgeStyle;rounded=0;orthogonalLoop=1;jettySize=auto;html=1;exitX=0.5;exitY=0;exitDx=0;exitDy=0;entryX=0.5;entryY=1;entryDx=0;entryDy=0;fontSize=13;" parent="1" source="CK9dQ3o06qtgQGBDyu8h-28" edge="1">
          <mxGeometry relative="1" as="geometry">
            <mxPoint x="-20" y="390" as="targetPoint" />
          </mxGeometry>
        </mxCell>
        <mxCell id="IFNf2uhesNQWuGmL52Zz-15" value="CBS" style="rounded=1;whiteSpace=wrap;html=1;fillColor=#fff2cc;strokeColor=#000000;fontSize=13;" parent="1" vertex="1">
          <mxGeometry x="-45" y="484" width="50" height="30" as="geometry" />
        </mxCell>
        <mxCell id="IFNf2uhesNQWuGmL52Zz-49" style="edgeStyle=orthogonalEdgeStyle;rounded=0;orthogonalLoop=1;jettySize=auto;html=1;exitX=0.5;exitY=0;exitDx=0;exitDy=0;entryX=0.5;entryY=1;entryDx=0;entryDy=0;fontSize=13;" parent="1" target="IFNf2uhesNQWuGmL52Zz-15" edge="1">
          <mxGeometry relative="1" as="geometry">
            <mxPoint x="-20" y="584" as="sourcePoint" />
          </mxGeometry>
        </mxCell>
        <mxCell id="IFNf2uhesNQWuGmL52Zz-86" style="edgeStyle=orthogonalEdgeStyle;rounded=0;orthogonalLoop=1;jettySize=auto;html=1;exitX=1;exitY=0.5;exitDx=0;exitDy=0;entryX=0;entryY=0.5;entryDx=0;entryDy=0;fontSize=13;fontColor=#3399FF;" parent="1" target="IFNf2uhesNQWuGmL52Zz-84" edge="1">
          <mxGeometry relative="1" as="geometry">
            <mxPoint x="5" y="599" as="sourcePoint" />
          </mxGeometry>
        </mxCell>
        <mxCell id="IFNf2uhesNQWuGmL52Zz-51" style="edgeStyle=orthogonalEdgeStyle;rounded=0;orthogonalLoop=1;jettySize=auto;html=1;exitX=0.5;exitY=0;exitDx=0;exitDy=0;entryX=0.5;entryY=1;entryDx=0;entryDy=0;fontSize=13;" parent="1" target="IFNf2uhesNQWuGmL52Zz-14" edge="1">
          <mxGeometry relative="1" as="geometry">
            <mxPoint x="-20.000000000000227" y="360" as="sourcePoint" />
          </mxGeometry>
        </mxCell>
        <mxCell id="IFNf2uhesNQWuGmL52Zz-85" style="edgeStyle=orthogonalEdgeStyle;rounded=0;orthogonalLoop=1;jettySize=auto;html=1;exitX=1;exitY=0.5;exitDx=0;exitDy=0;entryX=0;entryY=0.5;entryDx=0;entryDy=0;fontSize=13;fontColor=#3399FF;" parent="1" target="IFNf2uhesNQWuGmL52Zz-13" edge="1">
          <mxGeometry relative="1" as="geometry">
            <mxPoint x="4.999999999999773" y="375" as="sourcePoint" />
          </mxGeometry>
        </mxCell>
        <mxCell id="IFNf2uhesNQWuGmL52Zz-63" style="edgeStyle=orthogonalEdgeStyle;rounded=0;orthogonalLoop=1;jettySize=auto;html=1;exitX=0.5;exitY=0;exitDx=0;exitDy=0;entryX=0.5;entryY=1;entryDx=0;entryDy=0;fontSize=13;" parent="1" target="IFNf2uhesNQWuGmL52Zz-8" edge="1">
          <mxGeometry relative="1" as="geometry">
            <mxPoint x="-20.000000000000227" y="260" as="sourcePoint" />
          </mxGeometry>
        </mxCell>
        <mxCell id="IFNf2uhesNQWuGmL52Zz-150" style="edgeStyle=orthogonalEdgeStyle;rounded=0;orthogonalLoop=1;jettySize=auto;html=1;exitX=1;exitY=0.5;exitDx=0;exitDy=0;entryX=0;entryY=0.5;entryDx=0;entryDy=0;fontSize=12;fontColor=#00994D;" parent="1" source="IFNf2uhesNQWuGmL52Zz-33" target="IFNf2uhesNQWuGmL52Zz-147" edge="1">
          <mxGeometry relative="1" as="geometry" />
        </mxCell>
        <mxCell id="IFNf2uhesNQWuGmL52Zz-33" value="view" style="rounded=1;whiteSpace=wrap;html=1;fillColor=#f5f5f5;strokeColor=#666666;fontColor=#333333;" parent="1" vertex="1">
          <mxGeometry x="685.75" y="140" width="50" height="30" as="geometry" />
        </mxCell>
        <mxCell id="IFNf2uhesNQWuGmL52Zz-36" value="" style="whiteSpace=wrap;html=1;aspect=fixed;fillColor=#3333FF;strokeColor=#000000;rounded=0;shadow=0;" parent="1" vertex="1">
          <mxGeometry x="-65" y="840" width="60" height="60" as="geometry" />
        </mxCell>
        <mxCell id="IFNf2uhesNQWuGmL52Zz-37" value="" style="whiteSpace=wrap;html=1;aspect=fixed;fillColor=#00FF00;strokeColor=#000000;rounded=0;" parent="1" vertex="1">
          <mxGeometry x="-55" y="850" width="60" height="60" as="geometry" />
        </mxCell>
        <mxCell id="IFNf2uhesNQWuGmL52Zz-38" value="" style="whiteSpace=wrap;html=1;aspect=fixed;fillColor=#FF0000;strokeColor=#000000;rounded=0;" parent="1" vertex="1">
          <mxGeometry x="-45" y="860" width="60" height="60" as="geometry" />
        </mxCell>
        <mxCell id="IFNf2uhesNQWuGmL52Zz-43" value="" style="endArrow=classic;html=1;rounded=0;exitX=0.75;exitY=0;exitDx=0;exitDy=0;entryX=0.5;entryY=1;entryDx=0;entryDy=0;fontSize=13;" parent="1" source="IFNf2uhesNQWuGmL52Zz-36" target="IFNf2uhesNQWuGmL52Zz-1" edge="1">
          <mxGeometry width="50" height="50" relative="1" as="geometry">
            <mxPoint x="620" y="380" as="sourcePoint" />
            <mxPoint x="670" y="330" as="targetPoint" />
          </mxGeometry>
        </mxCell>
        <mxCell id="IFNf2uhesNQWuGmL52Zz-53" value="0" style="text;html=1;strokeColor=none;fillColor=none;align=center;verticalAlign=middle;whiteSpace=wrap;rounded=0;shadow=0;fontSize=12;" parent="1" vertex="1">
          <mxGeometry x="-65" y="776" width="15" height="30" as="geometry" />
        </mxCell>
        <mxCell id="IFNf2uhesNQWuGmL52Zz-54" value="5" style="text;html=1;strokeColor=none;fillColor=none;align=center;verticalAlign=middle;whiteSpace=wrap;rounded=0;shadow=0;fontSize=12;" parent="1" vertex="1">
          <mxGeometry x="-65" y="484" width="15" height="30" as="geometry" />
        </mxCell>
        <mxCell id="IFNf2uhesNQWuGmL52Zz-55" value="4" style="text;html=1;strokeColor=none;fillColor=none;align=center;verticalAlign=middle;whiteSpace=wrap;rounded=0;shadow=0;fontSize=12;" parent="1" vertex="1">
          <mxGeometry x="-65" y="584" width="15" height="30" as="geometry" />
        </mxCell>
        <mxCell id="IFNf2uhesNQWuGmL52Zz-56" value="3" style="text;html=1;strokeColor=none;fillColor=none;align=center;verticalAlign=middle;whiteSpace=wrap;rounded=0;shadow=0;fontSize=12;" parent="1" vertex="1">
          <mxGeometry x="-65" y="624" width="15" height="30" as="geometry" />
        </mxCell>
        <mxCell id="IFNf2uhesNQWuGmL52Zz-57" value="2" style="text;html=1;strokeColor=none;fillColor=none;align=center;verticalAlign=middle;whiteSpace=wrap;rounded=0;shadow=0;fontSize=12;" parent="1" vertex="1">
          <mxGeometry x="-65" y="676" width="15" height="30" as="geometry" />
        </mxCell>
        <mxCell id="IFNf2uhesNQWuGmL52Zz-58" value="1" style="text;html=1;strokeColor=none;fillColor=none;align=center;verticalAlign=middle;whiteSpace=wrap;rounded=0;shadow=0;fontSize=12;" parent="1" vertex="1">
          <mxGeometry x="-65" y="726" width="15" height="30" as="geometry" />
        </mxCell>
        <mxCell id="IFNf2uhesNQWuGmL52Zz-59" value="9" style="text;html=1;strokeColor=none;fillColor=none;align=center;verticalAlign=middle;whiteSpace=wrap;rounded=0;shadow=0;fontSize=12;" parent="1" vertex="1">
          <mxGeometry x="-65" y="200" width="15" height="30" as="geometry" />
        </mxCell>
        <mxCell id="IFNf2uhesNQWuGmL52Zz-60" value="8" style="text;html=1;strokeColor=none;fillColor=none;align=center;verticalAlign=middle;whiteSpace=wrap;rounded=0;shadow=0;fontSize=12;" parent="1" vertex="1">
          <mxGeometry x="-65" y="260" width="15" height="30" as="geometry" />
        </mxCell>
        <mxCell id="IFNf2uhesNQWuGmL52Zz-61" value="7" style="text;html=1;strokeColor=none;fillColor=none;align=center;verticalAlign=middle;whiteSpace=wrap;rounded=0;shadow=0;fontSize=12;" parent="1" vertex="1">
          <mxGeometry x="-65" y="310" width="15" height="30" as="geometry" />
        </mxCell>
        <mxCell id="IFNf2uhesNQWuGmL52Zz-62" value="6" style="text;html=1;strokeColor=none;fillColor=none;align=center;verticalAlign=middle;whiteSpace=wrap;rounded=0;shadow=0;fontSize=12;" parent="1" vertex="1">
          <mxGeometry x="-65" y="360" width="15" height="30" as="geometry" />
        </mxCell>
        <mxCell id="IFNf2uhesNQWuGmL52Zz-67" value="&lt;font size=&quot;1&quot; color=&quot;#f19c99&quot;&gt;&lt;b style=&quot;font-size: 15px;&quot;&gt;Backbone&lt;/b&gt;&lt;/font&gt;" style="text;html=1;strokeColor=none;fillColor=none;align=center;verticalAlign=middle;whiteSpace=wrap;rounded=0;shadow=0;dashed=1;" parent="1" vertex="1">
          <mxGeometry x="-60" y="105" width="80" height="30" as="geometry" />
        </mxCell>
        <mxCell id="IFNf2uhesNQWuGmL52Zz-68" value="&lt;font color=&quot;#3399ff&quot; style=&quot;font-size: 10px;&quot;&gt;20*20*256&lt;/font&gt;" style="text;html=1;strokeColor=none;fillColor=none;align=center;verticalAlign=middle;whiteSpace=wrap;rounded=0;shadow=0;dashed=1;fontColor=#F19C99;" parent="1" vertex="1">
          <mxGeometry x="160" y="245" width="60" height="30" as="geometry" />
        </mxCell>
        <mxCell id="IFNf2uhesNQWuGmL52Zz-69" value="&lt;font color=&quot;#3399ff&quot; style=&quot;font-size: 10px;&quot;&gt;40*40*128&lt;/font&gt;" style="text;html=1;strokeColor=none;fillColor=none;align=center;verticalAlign=middle;whiteSpace=wrap;rounded=0;shadow=0;dashed=1;fontColor=#F19C99;" parent="1" vertex="1">
          <mxGeometry x="160" y="509" width="60" height="30" as="geometry" />
        </mxCell>
        <mxCell id="IFNf2uhesNQWuGmL52Zz-70" value="&lt;font color=&quot;#3399ff&quot; style=&quot;font-size: 10px;&quot;&gt;40*40*256&lt;/font&gt;" style="text;html=1;strokeColor=none;fillColor=none;align=center;verticalAlign=middle;whiteSpace=wrap;rounded=0;shadow=0;dashed=1;fontColor=#F19C99;" parent="1" vertex="1">
          <mxGeometry x="160" y="467" width="60" height="20" as="geometry" />
        </mxCell>
        <mxCell id="IFNf2uhesNQWuGmL52Zz-71" value="&lt;font color=&quot;#3399ff&quot; style=&quot;font-size: 10px;&quot;&gt;640*640*3&lt;/font&gt;" style="text;html=1;strokeColor=none;fillColor=none;align=center;verticalAlign=middle;whiteSpace=wrap;rounded=0;shadow=0;dashed=1;fontColor=#F19C99;" parent="1" vertex="1">
          <mxGeometry x="-50" y="920" width="60" height="30" as="geometry" />
        </mxCell>
        <mxCell id="IFNf2uhesNQWuGmL52Zz-72" value="&lt;font color=&quot;#3399ff&quot; style=&quot;font-size: 10px;&quot;&gt;40*40*256&lt;/font&gt;" style="text;html=1;strokeColor=none;fillColor=none;align=center;verticalAlign=middle;whiteSpace=wrap;rounded=0;shadow=0;dashed=1;fontColor=#F19C99;" parent="1" vertex="1">
          <mxGeometry x="-87.5" y="462" width="60" height="30" as="geometry" />
        </mxCell>
        <mxCell id="IFNf2uhesNQWuGmL52Zz-73" value="&lt;font color=&quot;#3399ff&quot; style=&quot;font-size: 10px;&quot;&gt;20*20*512&lt;/font&gt;" style="text;html=1;strokeColor=none;fillColor=none;align=center;verticalAlign=middle;whiteSpace=wrap;rounded=0;shadow=0;dashed=1;fontColor=#F19C99;" parent="1" vertex="1">
          <mxGeometry x="-87.5" y="288" width="60" height="30" as="geometry" />
        </mxCell>
        <mxCell id="IFNf2uhesNQWuGmL52Zz-74" value="&lt;font color=&quot;#3399ff&quot; style=&quot;font-size: 10px;&quot;&gt;40*40*512&lt;/font&gt;" style="text;html=1;strokeColor=none;fillColor=none;align=center;verticalAlign=middle;whiteSpace=wrap;rounded=0;shadow=0;dashed=1;fontColor=#F19C99;" parent="1" vertex="1">
          <mxGeometry x="160" y="410" width="60" height="30" as="geometry" />
        </mxCell>
        <mxCell id="IFNf2uhesNQWuGmL52Zz-75" value="&lt;font color=&quot;#3399ff&quot; style=&quot;font-size: 10px;&quot;&gt;20*20*512&lt;/font&gt;" style="text;html=1;strokeColor=none;fillColor=none;align=center;verticalAlign=middle;whiteSpace=wrap;rounded=0;shadow=0;dashed=1;fontColor=#F19C99;" parent="1" vertex="1">
          <mxGeometry x="-20" y="178" width="60" height="30" as="geometry" />
        </mxCell>
        <mxCell id="IFNf2uhesNQWuGmL52Zz-76" value="&lt;font color=&quot;#3399ff&quot; style=&quot;font-size: 10px;&quot;&gt;320*320*32&lt;/font&gt;" style="text;html=1;strokeColor=none;fillColor=none;align=center;verticalAlign=middle;whiteSpace=wrap;rounded=0;shadow=0;dashed=1;fontColor=#F19C99;" parent="1" vertex="1">
          <mxGeometry x="-87.5" y="754" width="60" height="30" as="geometry" />
        </mxCell>
        <mxCell id="IFNf2uhesNQWuGmL52Zz-77" value="&lt;font color=&quot;#3399ff&quot; style=&quot;font-size: 10px;&quot;&gt;160*160*64&lt;/font&gt;" style="text;html=1;strokeColor=none;fillColor=none;align=center;verticalAlign=middle;whiteSpace=wrap;rounded=0;shadow=0;dashed=1;fontColor=#F19C99;" parent="1" vertex="1">
          <mxGeometry x="-87.5" y="704" width="60" height="30" as="geometry" />
        </mxCell>
        <mxCell id="IFNf2uhesNQWuGmL52Zz-78" value="&lt;font color=&quot;#3399ff&quot; style=&quot;font-size: 10px;&quot;&gt;80*80*128&lt;/font&gt;" style="text;html=1;strokeColor=none;fillColor=none;align=center;verticalAlign=middle;whiteSpace=wrap;rounded=0;shadow=0;dashed=1;fontColor=#F19C99;" parent="1" vertex="1">
          <mxGeometry x="-87.5" y="608.75" width="60" height="30" as="geometry" />
        </mxCell>
        <mxCell id="IFNf2uhesNQWuGmL52Zz-89" style="edgeStyle=orthogonalEdgeStyle;rounded=0;orthogonalLoop=1;jettySize=auto;html=1;exitX=0.5;exitY=1;exitDx=0;exitDy=0;entryX=0.5;entryY=0;entryDx=0;entryDy=0;fontSize=13;fontColor=#3399FF;" parent="1" source="IFNf2uhesNQWuGmL52Zz-79" target="IFNf2uhesNQWuGmL52Zz-95" edge="1">
          <mxGeometry relative="1" as="geometry">
            <mxPoint x="155" y="290" as="targetPoint" />
          </mxGeometry>
        </mxCell>
        <mxCell id="IFNf2uhesNQWuGmL52Zz-132" style="edgeStyle=orthogonalEdgeStyle;rounded=0;orthogonalLoop=1;jettySize=auto;html=1;exitX=1;exitY=0.5;exitDx=0;exitDy=0;entryX=0;entryY=0.5;entryDx=0;entryDy=0;fontSize=12;fontColor=#00994D;" parent="1" source="IFNf2uhesNQWuGmL52Zz-79" target="IFNf2uhesNQWuGmL52Zz-107" edge="1">
          <mxGeometry relative="1" as="geometry" />
        </mxCell>
        <mxCell id="IFNf2uhesNQWuGmL52Zz-79" value="CBS" style="rounded=1;whiteSpace=wrap;html=1;fillColor=#fff2cc;strokeColor=#000000;fontSize=13;" parent="1" vertex="1">
          <mxGeometry x="130.74" y="207" width="50" height="30" as="geometry" />
        </mxCell>
        <mxCell id="IFNf2uhesNQWuGmL52Zz-90" style="edgeStyle=orthogonalEdgeStyle;rounded=0;orthogonalLoop=1;jettySize=auto;html=1;exitX=0.5;exitY=1;exitDx=0;exitDy=0;entryX=0.5;entryY=0;entryDx=0;entryDy=0;fontSize=13;fontColor=#3399FF;" parent="1" target="IFNf2uhesNQWuGmL52Zz-13" edge="1">
          <mxGeometry relative="1" as="geometry">
            <mxPoint x="155" y="300.0000000000001" as="sourcePoint" />
          </mxGeometry>
        </mxCell>
        <mxCell id="IFNf2uhesNQWuGmL52Zz-92" style="edgeStyle=orthogonalEdgeStyle;rounded=0;orthogonalLoop=1;jettySize=auto;html=1;exitX=0.5;exitY=1;exitDx=0;exitDy=0;entryX=0.5;entryY=0;entryDx=0;entryDy=0;fontSize=13;fontColor=#3399FF;" parent="1" source="IFNf2uhesNQWuGmL52Zz-82" target="IFNf2uhesNQWuGmL52Zz-12" edge="1">
          <mxGeometry relative="1" as="geometry" />
        </mxCell>
        <mxCell id="IFNf2uhesNQWuGmL52Zz-82" value="C3_2_1" style="rounded=1;whiteSpace=wrap;html=1;fillColor=#F19C99;strokeColor=#000000;fontSize=13;" parent="1" vertex="1">
          <mxGeometry x="130" y="434" width="50" height="30" as="geometry" />
        </mxCell>
        <mxCell id="IFNf2uhesNQWuGmL52Zz-94" style="edgeStyle=orthogonalEdgeStyle;rounded=0;orthogonalLoop=1;jettySize=auto;html=1;exitX=0.5;exitY=1;exitDx=0;exitDy=0;entryX=0.5;entryY=0;entryDx=0;entryDy=0;fontSize=13;fontColor=#3399FF;" parent="1" source="IFNf2uhesNQWuGmL52Zz-83" target="IFNf2uhesNQWuGmL52Zz-84" edge="1">
          <mxGeometry relative="1" as="geometry" />
        </mxCell>
        <mxCell id="IFNf2uhesNQWuGmL52Zz-83" value="Upsample" style="rounded=1;whiteSpace=wrap;html=1;fillColor=#e1d5e7;strokeColor=#000000;fontSize=13;" parent="1" vertex="1">
          <mxGeometry x="112.5" y="534" width="85" height="30" as="geometry" />
        </mxCell>
        <mxCell id="IFNf2uhesNQWuGmL52Zz-118" style="edgeStyle=orthogonalEdgeStyle;rounded=0;orthogonalLoop=1;jettySize=auto;html=1;exitX=1;exitY=0.5;exitDx=0;exitDy=0;entryX=0;entryY=0.5;entryDx=0;entryDy=0;fontSize=12;fontColor=#3399FF;" parent="1" source="IFNf2uhesNQWuGmL52Zz-84" target="IFNf2uhesNQWuGmL52Zz-110" edge="1">
          <mxGeometry relative="1" as="geometry" />
        </mxCell>
        <mxCell id="IFNf2uhesNQWuGmL52Zz-84" value="Concat" style="rounded=1;whiteSpace=wrap;html=1;fillColor=#FFD966;strokeColor=#000000;" parent="1" vertex="1">
          <mxGeometry x="115" y="584" width="80" height="30" as="geometry" />
        </mxCell>
        <mxCell id="IFNf2uhesNQWuGmL52Zz-95" value="Upsample" style="rounded=1;whiteSpace=wrap;html=1;fillColor=#e1d5e7;strokeColor=#000000;fontSize=13;" parent="1" vertex="1">
          <mxGeometry x="112.5" y="280" width="85" height="30" as="geometry" />
        </mxCell>
        <mxCell id="IFNf2uhesNQWuGmL52Zz-97" value="10" style="text;html=1;strokeColor=none;fillColor=none;align=center;verticalAlign=middle;whiteSpace=wrap;rounded=0;shadow=0;fontSize=12;" parent="1" vertex="1">
          <mxGeometry x="115" y="187" width="15" height="30" as="geometry" />
        </mxCell>
        <mxCell id="IFNf2uhesNQWuGmL52Zz-99" value="12" style="text;html=1;strokeColor=none;fillColor=none;align=center;verticalAlign=middle;whiteSpace=wrap;rounded=0;shadow=0;fontSize=12;" parent="1" vertex="1">
          <mxGeometry x="115" y="335" width="15" height="30" as="geometry" />
        </mxCell>
        <mxCell id="IFNf2uhesNQWuGmL52Zz-100" value="15" style="text;html=1;strokeColor=none;fillColor=none;align=center;verticalAlign=middle;whiteSpace=wrap;rounded=0;shadow=0;fontSize=12;" parent="1" vertex="1">
          <mxGeometry x="112.5" y="507" width="15" height="30" as="geometry" />
        </mxCell>
        <mxCell id="IFNf2uhesNQWuGmL52Zz-101" value="14" style="text;html=1;strokeColor=none;fillColor=none;align=center;verticalAlign=middle;whiteSpace=wrap;rounded=0;shadow=0;fontSize=12;" parent="1" vertex="1">
          <mxGeometry x="112.5" y="464" width="15" height="30" as="geometry" />
        </mxCell>
        <mxCell id="IFNf2uhesNQWuGmL52Zz-102" value="13" style="text;html=1;strokeColor=none;fillColor=none;align=center;verticalAlign=middle;whiteSpace=wrap;rounded=0;shadow=0;fontSize=12;" parent="1" vertex="1">
          <mxGeometry x="112.5" y="414" width="15" height="30" as="geometry" />
        </mxCell>
        <mxCell id="IFNf2uhesNQWuGmL52Zz-103" value="11" style="text;html=1;strokeColor=none;fillColor=none;align=center;verticalAlign=middle;whiteSpace=wrap;rounded=0;shadow=0;fontSize=12;" parent="1" vertex="1">
          <mxGeometry x="115" y="258" width="15" height="30" as="geometry" />
        </mxCell>
        <mxCell id="IFNf2uhesNQWuGmL52Zz-104" value="16" style="text;html=1;strokeColor=none;fillColor=none;align=center;verticalAlign=middle;whiteSpace=wrap;rounded=0;shadow=0;fontSize=12;" parent="1" vertex="1">
          <mxGeometry x="112.5" y="562" width="15" height="30" as="geometry" />
        </mxCell>
        <mxCell id="IFNf2uhesNQWuGmL52Zz-105" value="&lt;font color=&quot;#3399ff&quot; style=&quot;font-size: 10px;&quot;&gt;40*40*256&lt;/font&gt;" style="text;html=1;strokeColor=none;fillColor=none;align=center;verticalAlign=middle;whiteSpace=wrap;rounded=0;shadow=0;dashed=1;fontColor=#F19C99;" parent="1" vertex="1">
          <mxGeometry x="160" y="335" width="60" height="30" as="geometry" />
        </mxCell>
        <mxCell id="IFNf2uhesNQWuGmL52Zz-106" value="&lt;font color=&quot;#3399ff&quot; style=&quot;font-size: 10px;&quot;&gt;80*80*128&lt;/font&gt;" style="text;html=1;strokeColor=none;fillColor=none;align=center;verticalAlign=middle;whiteSpace=wrap;rounded=0;shadow=0;dashed=1;fontColor=#F19C99;" parent="1" vertex="1">
          <mxGeometry x="160" y="562" width="60" height="30" as="geometry" />
        </mxCell>
        <mxCell id="IFNf2uhesNQWuGmL52Zz-134" style="edgeStyle=orthogonalEdgeStyle;rounded=0;orthogonalLoop=1;jettySize=auto;html=1;exitX=0.5;exitY=0;exitDx=0;exitDy=0;entryX=0.5;entryY=1;entryDx=0;entryDy=0;fontSize=12;fontColor=#00994D;" parent="1" source="IFNf2uhesNQWuGmL52Zz-107" target="IFNf2uhesNQWuGmL52Zz-133" edge="1">
          <mxGeometry relative="1" as="geometry" />
        </mxCell>
        <mxCell id="IFNf2uhesNQWuGmL52Zz-107" value="Concat" style="rounded=1;whiteSpace=wrap;html=1;fillColor=#FFD966;strokeColor=#000000;" parent="1" vertex="1">
          <mxGeometry x="300" y="207" width="80" height="30" as="geometry" />
        </mxCell>
        <mxCell id="IFNf2uhesNQWuGmL52Zz-122" style="edgeStyle=orthogonalEdgeStyle;rounded=0;orthogonalLoop=1;jettySize=auto;html=1;exitX=0.5;exitY=0;exitDx=0;exitDy=0;entryX=0.5;entryY=1;entryDx=0;entryDy=0;fontSize=12;fontColor=#3399FF;" parent="1" source="IFNf2uhesNQWuGmL52Zz-108" target="IFNf2uhesNQWuGmL52Zz-11" edge="1">
          <mxGeometry relative="1" as="geometry" />
        </mxCell>
        <mxCell id="IFNf2uhesNQWuGmL52Zz-140" style="edgeStyle=orthogonalEdgeStyle;rounded=0;orthogonalLoop=1;jettySize=auto;html=1;exitX=1;exitY=0.5;exitDx=0;exitDy=0;entryX=0;entryY=0.5;entryDx=0;entryDy=0;fontSize=12;fontColor=#00994D;" parent="1" source="IFNf2uhesNQWuGmL52Zz-108" target="IFNf2uhesNQWuGmL52Zz-137" edge="1">
          <mxGeometry relative="1" as="geometry">
            <Array as="points">
              <mxPoint x="430" y="380" />
              <mxPoint x="430" y="202" />
            </Array>
          </mxGeometry>
        </mxCell>
        <mxCell id="IFNf2uhesNQWuGmL52Zz-108" value="C3_2_1" style="rounded=1;whiteSpace=wrap;html=1;fillColor=#F19C99;strokeColor=#000000;fontSize=13;" parent="1" vertex="1">
          <mxGeometry x="315" y="365" width="50" height="30" as="geometry" />
        </mxCell>
        <mxCell id="IFNf2uhesNQWuGmL52Zz-121" style="edgeStyle=orthogonalEdgeStyle;rounded=0;orthogonalLoop=1;jettySize=auto;html=1;exitX=0.5;exitY=0;exitDx=0;exitDy=0;entryX=0.5;entryY=1;entryDx=0;entryDy=0;fontSize=12;fontColor=#3399FF;" parent="1" source="IFNf2uhesNQWuGmL52Zz-109" target="IFNf2uhesNQWuGmL52Zz-108" edge="1">
          <mxGeometry relative="1" as="geometry">
            <mxPoint x="340" y="419" as="targetPoint" />
          </mxGeometry>
        </mxCell>
        <mxCell id="IFNf2uhesNQWuGmL52Zz-109" value="Concat" style="rounded=1;whiteSpace=wrap;html=1;fillColor=#FFD966;strokeColor=#000000;" parent="1" vertex="1">
          <mxGeometry x="300" y="484" width="80" height="30" as="geometry" />
        </mxCell>
        <mxCell id="IFNf2uhesNQWuGmL52Zz-119" style="edgeStyle=orthogonalEdgeStyle;rounded=0;orthogonalLoop=1;jettySize=auto;html=1;exitX=0.5;exitY=0;exitDx=0;exitDy=0;entryX=0.5;entryY=1;entryDx=0;entryDy=0;fontSize=12;fontColor=#3399FF;" parent="1" source="IFNf2uhesNQWuGmL52Zz-110" target="IFNf2uhesNQWuGmL52Zz-10" edge="1">
          <mxGeometry relative="1" as="geometry" />
        </mxCell>
        <mxCell id="IFNf2uhesNQWuGmL52Zz-139" style="edgeStyle=orthogonalEdgeStyle;rounded=0;orthogonalLoop=1;jettySize=auto;html=1;exitX=1;exitY=0.5;exitDx=0;exitDy=0;entryX=0;entryY=0.5;entryDx=0;entryDy=0;fontSize=12;fontColor=#00994D;" parent="1" source="IFNf2uhesNQWuGmL52Zz-110" target="IFNf2uhesNQWuGmL52Zz-138" edge="1">
          <mxGeometry relative="1" as="geometry">
            <Array as="points">
              <mxPoint x="450" y="575" />
              <mxPoint x="450" y="253" />
            </Array>
          </mxGeometry>
        </mxCell>
        <mxCell id="IFNf2uhesNQWuGmL52Zz-110" value="C3_2_1" style="rounded=1;whiteSpace=wrap;html=1;fillColor=#F19C99;strokeColor=#000000;fontSize=13;" parent="1" vertex="1">
          <mxGeometry x="315" y="584" width="50" height="30" as="geometry" />
        </mxCell>
        <mxCell id="IFNf2uhesNQWuGmL52Zz-111" value="22" style="text;html=1;strokeColor=none;fillColor=none;align=center;verticalAlign=middle;whiteSpace=wrap;rounded=0;shadow=0;fontSize=12;" parent="1" vertex="1">
          <mxGeometry x="300" y="187" width="15" height="30" as="geometry" />
        </mxCell>
        <mxCell id="IFNf2uhesNQWuGmL52Zz-112" value="21" style="text;html=1;strokeColor=none;fillColor=none;align=center;verticalAlign=middle;whiteSpace=wrap;rounded=0;shadow=0;fontSize=12;" parent="1" vertex="1">
          <mxGeometry x="300" y="260" width="15" height="30" as="geometry" />
        </mxCell>
        <mxCell id="IFNf2uhesNQWuGmL52Zz-114" value="20" style="text;html=1;strokeColor=none;fillColor=none;align=center;verticalAlign=middle;whiteSpace=wrap;rounded=0;shadow=0;fontSize=12;" parent="1" vertex="1">
          <mxGeometry x="300" y="335" width="15" height="30" as="geometry" />
        </mxCell>
        <mxCell id="IFNf2uhesNQWuGmL52Zz-115" value="17" style="text;html=1;strokeColor=none;fillColor=none;align=center;verticalAlign=middle;whiteSpace=wrap;rounded=0;shadow=0;fontSize=12;" parent="1" vertex="1">
          <mxGeometry x="300" y="564" width="15" height="30" as="geometry" />
        </mxCell>
        <mxCell id="IFNf2uhesNQWuGmL52Zz-116" value="18" style="text;html=1;strokeColor=none;fillColor=none;align=center;verticalAlign=middle;whiteSpace=wrap;rounded=0;shadow=0;fontSize=12;" parent="1" vertex="1">
          <mxGeometry x="300" y="514" width="15" height="30" as="geometry" />
        </mxCell>
        <mxCell id="IFNf2uhesNQWuGmL52Zz-117" value="19" style="text;html=1;strokeColor=none;fillColor=none;align=center;verticalAlign=middle;whiteSpace=wrap;rounded=0;shadow=0;fontSize=12;" parent="1" vertex="1">
          <mxGeometry x="300" y="457" width="15" height="30" as="geometry" />
        </mxCell>
        <mxCell id="IFNf2uhesNQWuGmL52Zz-124" value="&lt;font color=&quot;#3399ff&quot; style=&quot;font-size: 10px;&quot;&gt;80*80*256&lt;/font&gt;" style="text;html=1;strokeColor=none;fillColor=none;align=center;verticalAlign=middle;whiteSpace=wrap;rounded=0;shadow=0;dashed=1;fontColor=#F19C99;" parent="1" vertex="1">
          <mxGeometry x="220" y="594" width="60" height="30" as="geometry" />
        </mxCell>
        <mxCell id="IFNf2uhesNQWuGmL52Zz-125" value="&lt;font color=&quot;#00994d&quot; style=&quot;font-size: 10px;&quot;&gt;80*80*128&lt;/font&gt;" style="text;html=1;strokeColor=none;fillColor=none;align=center;verticalAlign=middle;whiteSpace=wrap;rounded=0;shadow=0;dashed=1;fontColor=#F19C99;" parent="1" vertex="1">
          <mxGeometry x="370" y="574" width="60" height="30" as="geometry" />
        </mxCell>
        <mxCell id="IFNf2uhesNQWuGmL52Zz-126" value="&lt;font color=&quot;#3399ff&quot; style=&quot;font-size: 10px;&quot;&gt;40*40*128&lt;/font&gt;" style="text;html=1;strokeColor=none;fillColor=none;align=center;verticalAlign=middle;whiteSpace=wrap;rounded=0;shadow=0;dashed=1;fontColor=#F19C99;" parent="1" vertex="1">
          <mxGeometry x="364" y="509" width="60" height="30" as="geometry" />
        </mxCell>
        <mxCell id="IFNf2uhesNQWuGmL52Zz-128" value="&lt;font color=&quot;#ff3333&quot; style=&quot;font-size: 10px;&quot;&gt;40*40*512&lt;/font&gt;" style="text;html=1;strokeColor=none;fillColor=none;align=center;verticalAlign=middle;whiteSpace=wrap;rounded=0;shadow=0;dashed=1;fontColor=#F19C99;" parent="1" vertex="1">
          <mxGeometry x="364" y="467" width="60" height="20" as="geometry" />
        </mxCell>
        <mxCell id="IFNf2uhesNQWuGmL52Zz-129" value="&lt;font color=&quot;#00994d&quot; style=&quot;font-size: 10px;&quot;&gt;40*40*256&lt;/font&gt;" style="text;html=1;strokeColor=none;fillColor=none;align=center;verticalAlign=middle;whiteSpace=wrap;rounded=0;shadow=0;dashed=1;fontColor=#F19C99;" parent="1" vertex="1">
          <mxGeometry x="370" y="356" width="60" height="30" as="geometry" />
        </mxCell>
        <mxCell id="IFNf2uhesNQWuGmL52Zz-130" value="&lt;font color=&quot;#3399ff&quot; style=&quot;font-size: 10px;&quot;&gt;20*20*256&lt;/font&gt;" style="text;html=1;strokeColor=none;fillColor=none;align=center;verticalAlign=middle;whiteSpace=wrap;rounded=0;shadow=0;dashed=1;fontColor=#F19C99;" parent="1" vertex="1">
          <mxGeometry x="350" y="250" width="60" height="20" as="geometry" />
        </mxCell>
        <mxCell id="IFNf2uhesNQWuGmL52Zz-141" style="edgeStyle=orthogonalEdgeStyle;rounded=0;orthogonalLoop=1;jettySize=auto;html=1;exitX=1;exitY=0.5;exitDx=0;exitDy=0;entryX=0;entryY=0.5;entryDx=0;entryDy=0;fontSize=12;fontColor=#00994D;" parent="1" source="IFNf2uhesNQWuGmL52Zz-133" target="IFNf2uhesNQWuGmL52Zz-9" edge="1">
          <mxGeometry relative="1" as="geometry" />
        </mxCell>
        <mxCell id="IFNf2uhesNQWuGmL52Zz-133" value="C3_2_1" style="rounded=1;whiteSpace=wrap;html=1;fillColor=#F19C99;strokeColor=#000000;fontSize=13;" parent="1" vertex="1">
          <mxGeometry x="315" y="140" width="50" height="30" as="geometry" />
        </mxCell>
        <mxCell id="IFNf2uhesNQWuGmL52Zz-135" value="&lt;font color=&quot;#3399ff&quot; style=&quot;font-size: 10px;&quot;&gt;20*20*512&lt;/font&gt;" style="text;html=1;strokeColor=none;fillColor=none;align=center;verticalAlign=middle;whiteSpace=wrap;rounded=0;shadow=0;dashed=1;fontColor=#F19C99;" parent="1" vertex="1">
          <mxGeometry x="350" y="180" width="60" height="20" as="geometry" />
        </mxCell>
        <mxCell id="IFNf2uhesNQWuGmL52Zz-136" value="&lt;font color=&quot;#00994d&quot; style=&quot;font-size: 10px;&quot;&gt;20*20*512&lt;/font&gt;" style="text;html=1;strokeColor=none;fillColor=none;align=center;verticalAlign=middle;whiteSpace=wrap;rounded=0;shadow=0;dashed=1;fontColor=#F19C99;" parent="1" vertex="1">
          <mxGeometry x="370" y="130" width="60" height="30" as="geometry" />
        </mxCell>
        <mxCell id="IFNf2uhesNQWuGmL52Zz-143" style="edgeStyle=orthogonalEdgeStyle;rounded=0;orthogonalLoop=1;jettySize=auto;html=1;exitX=1;exitY=0.5;exitDx=0;exitDy=0;fontSize=12;fontColor=#00994D;entryX=0;entryY=0.5;entryDx=0;entryDy=0;" parent="1" source="IFNf2uhesNQWuGmL52Zz-137" target="IFNf2uhesNQWuGmL52Zz-145" edge="1">
          <mxGeometry relative="1" as="geometry">
            <mxPoint x="684.25" y="202" as="targetPoint" />
          </mxGeometry>
        </mxCell>
        <mxCell id="IFNf2uhesNQWuGmL52Zz-137" value="Conv2d" style="rounded=1;whiteSpace=wrap;html=1;fillColor=#66CC00;strokeColor=#000000;" parent="1" vertex="1">
          <mxGeometry x="604.25" y="187" width="50" height="30" as="geometry" />
        </mxCell>
        <mxCell id="IFNf2uhesNQWuGmL52Zz-144" style="edgeStyle=orthogonalEdgeStyle;rounded=0;orthogonalLoop=1;jettySize=auto;html=1;exitX=1;exitY=0.5;exitDx=0;exitDy=0;fontSize=12;fontColor=#00994D;entryX=0;entryY=0.5;entryDx=0;entryDy=0;" parent="1" source="IFNf2uhesNQWuGmL52Zz-138" target="IFNf2uhesNQWuGmL52Zz-146" edge="1">
          <mxGeometry relative="1" as="geometry">
            <mxPoint x="684.25" y="253.39130434782624" as="targetPoint" />
          </mxGeometry>
        </mxCell>
        <mxCell id="IFNf2uhesNQWuGmL52Zz-138" value="Conv2d" style="rounded=1;whiteSpace=wrap;html=1;fillColor=#66CC00;strokeColor=#000000;" parent="1" vertex="1">
          <mxGeometry x="604.25" y="238" width="50" height="30" as="geometry" />
        </mxCell>
        <mxCell id="IFNf2uhesNQWuGmL52Zz-151" style="edgeStyle=orthogonalEdgeStyle;rounded=0;orthogonalLoop=1;jettySize=auto;html=1;exitX=1;exitY=0.5;exitDx=0;exitDy=0;entryX=0;entryY=0.5;entryDx=0;entryDy=0;fontSize=12;fontColor=#00994D;" parent="1" source="IFNf2uhesNQWuGmL52Zz-145" target="IFNf2uhesNQWuGmL52Zz-148" edge="1">
          <mxGeometry relative="1" as="geometry" />
        </mxCell>
        <mxCell id="IFNf2uhesNQWuGmL52Zz-145" value="view" style="rounded=1;whiteSpace=wrap;html=1;fillColor=#f5f5f5;strokeColor=#666666;fontColor=#333333;" parent="1" vertex="1">
          <mxGeometry x="684.25" y="187" width="50" height="30" as="geometry" />
        </mxCell>
        <mxCell id="IFNf2uhesNQWuGmL52Zz-152" style="edgeStyle=orthogonalEdgeStyle;rounded=0;orthogonalLoop=1;jettySize=auto;html=1;exitX=1;exitY=0.5;exitDx=0;exitDy=0;entryX=0;entryY=0.5;entryDx=0;entryDy=0;fontSize=12;fontColor=#00994D;" parent="1" source="IFNf2uhesNQWuGmL52Zz-146" target="IFNf2uhesNQWuGmL52Zz-149" edge="1">
          <mxGeometry relative="1" as="geometry" />
        </mxCell>
        <mxCell id="IFNf2uhesNQWuGmL52Zz-146" value="view" style="rounded=1;whiteSpace=wrap;html=1;fillColor=#f5f5f5;strokeColor=#666666;fontColor=#333333;" parent="1" vertex="1">
          <mxGeometry x="684.25" y="238" width="50" height="30" as="geometry" />
        </mxCell>
        <mxCell id="IFNf2uhesNQWuGmL52Zz-147" value="permute" style="rounded=1;whiteSpace=wrap;html=1;fillColor=#f5f5f5;strokeColor=#666666;fontColor=#333333;" parent="1" vertex="1">
          <mxGeometry x="765.75" y="140" width="50" height="30" as="geometry" />
        </mxCell>
        <mxCell id="IFNf2uhesNQWuGmL52Zz-148" value="permute" style="rounded=1;whiteSpace=wrap;html=1;fillColor=#f5f5f5;strokeColor=#666666;fontColor=#333333;" parent="1" vertex="1">
          <mxGeometry x="764.25" y="187" width="50" height="30" as="geometry" />
        </mxCell>
        <mxCell id="IFNf2uhesNQWuGmL52Zz-149" value="permute" style="rounded=1;whiteSpace=wrap;html=1;fillColor=#f5f5f5;strokeColor=#666666;fontColor=#333333;" parent="1" vertex="1">
          <mxGeometry x="764.25" y="238" width="50" height="30" as="geometry" />
        </mxCell>
        <mxCell id="IFNf2uhesNQWuGmL52Zz-182" value="23" style="text;html=1;strokeColor=none;fillColor=none;align=center;verticalAlign=middle;whiteSpace=wrap;rounded=0;shadow=0;fontSize=12;" parent="1" vertex="1">
          <mxGeometry x="300" y="120" width="15" height="30" as="geometry" />
        </mxCell>
        <mxCell id="IFNf2uhesNQWuGmL52Zz-184" value="&lt;b style=&quot;&quot;&gt;&lt;font style=&quot;font-size: 15px;&quot; color=&quot;#990099&quot;&gt;Neck&lt;/font&gt;&lt;/b&gt;" style="text;html=1;strokeColor=none;fillColor=none;align=center;verticalAlign=middle;whiteSpace=wrap;rounded=0;shadow=0;dashed=1;" parent="1" vertex="1">
          <mxGeometry x="245" y="105" width="60" height="30" as="geometry" />
        </mxCell>
        <mxCell id="IFNf2uhesNQWuGmL52Zz-186" value="&lt;b style=&quot;&quot;&gt;&lt;font color=&quot;#00994d&quot; style=&quot;font-size: 15px;&quot;&gt;Head&lt;/font&gt;&lt;/b&gt;" style="text;html=1;strokeColor=none;fillColor=none;align=center;verticalAlign=middle;whiteSpace=wrap;rounded=0;shadow=0;dashed=1;" parent="1" vertex="1">
          <mxGeometry x="680" y="105" width="60" height="30" as="geometry" />
        </mxCell>
        <mxCell id="IFNf2uhesNQWuGmL52Zz-187" value="CBS" style="rounded=1;whiteSpace=wrap;html=1;fillColor=#fff2cc;strokeColor=#000000;fontSize=13;" parent="1" vertex="1">
          <mxGeometry x="1063.2799999999997" y="356" width="50" height="30" as="geometry" />
        </mxCell>
        <mxCell id="IFNf2uhesNQWuGmL52Zz-201" style="edgeStyle=orthogonalEdgeStyle;rounded=0;orthogonalLoop=1;jettySize=auto;html=1;exitX=1;exitY=0.5;exitDx=0;exitDy=0;entryX=0;entryY=0.5;entryDx=0;entryDy=0;fontSize=15;fontColor=#000000;" parent="1" source="IFNf2uhesNQWuGmL52Zz-188" target="IFNf2uhesNQWuGmL52Zz-189" edge="1">
          <mxGeometry relative="1" as="geometry">
            <mxPoint x="1138.2799999999997" y="371" as="sourcePoint" />
          </mxGeometry>
        </mxCell>
        <mxCell id="IFNf2uhesNQWuGmL52Zz-188" value="&lt;font color=&quot;#000000&quot;&gt;=&lt;/font&gt;" style="text;html=1;strokeColor=none;fillColor=none;align=center;verticalAlign=middle;whiteSpace=wrap;rounded=0;shadow=0;dashed=1;fontSize=15;fontColor=#00994D;" parent="1" vertex="1">
          <mxGeometry x="1113.2799999999997" y="356" width="20" height="30" as="geometry" />
        </mxCell>
        <mxCell id="IFNf2uhesNQWuGmL52Zz-192" style="edgeStyle=orthogonalEdgeStyle;rounded=0;orthogonalLoop=1;jettySize=auto;html=1;exitX=1;exitY=0.5;exitDx=0;exitDy=0;entryX=0;entryY=0.5;entryDx=0;entryDy=0;fontSize=15;fontColor=#000000;" parent="1" source="IFNf2uhesNQWuGmL52Zz-189" target="IFNf2uhesNQWuGmL52Zz-190" edge="1">
          <mxGeometry relative="1" as="geometry" />
        </mxCell>
        <mxCell id="IFNf2uhesNQWuGmL52Zz-189" value="Conv2d" style="rounded=1;whiteSpace=wrap;html=1;fillColor=#66CC00;strokeColor=#000000;" parent="1" vertex="1">
          <mxGeometry x="1149.7799999999997" y="356" width="50" height="30" as="geometry" />
        </mxCell>
        <mxCell id="IFNf2uhesNQWuGmL52Zz-193" style="edgeStyle=orthogonalEdgeStyle;rounded=0;orthogonalLoop=1;jettySize=auto;html=1;exitX=1;exitY=0.5;exitDx=0;exitDy=0;entryX=0;entryY=0.5;entryDx=0;entryDy=0;fontSize=15;fontColor=#000000;" parent="1" source="IFNf2uhesNQWuGmL52Zz-190" target="IFNf2uhesNQWuGmL52Zz-191" edge="1">
          <mxGeometry relative="1" as="geometry" />
        </mxCell>
        <mxCell id="IFNf2uhesNQWuGmL52Zz-190" value="&lt;font color=&quot;#000000&quot;&gt;BN&lt;/font&gt;" style="rounded=1;whiteSpace=wrap;html=1;fillColor=#007FFF;strokeColor=#000000;fontColor=#ffffff;" parent="1" vertex="1">
          <mxGeometry x="1214.7799999999997" y="356" width="50" height="30" as="geometry" />
        </mxCell>
        <mxCell id="IFNf2uhesNQWuGmL52Zz-191" value="SiLU" style="rounded=1;whiteSpace=wrap;html=1;fillColor=#FF8000;strokeColor=#000000;" parent="1" vertex="1">
          <mxGeometry x="1284.7799999999997" y="356" width="50" height="30" as="geometry" />
        </mxCell>
        <mxCell id="IFNf2uhesNQWuGmL52Zz-202" style="edgeStyle=orthogonalEdgeStyle;rounded=0;orthogonalLoop=1;jettySize=auto;html=1;exitX=1;exitY=0.5;exitDx=0;exitDy=0;entryX=0;entryY=0.5;entryDx=0;entryDy=0;fontSize=15;fontColor=#000000;" parent="1" source="IFNf2uhesNQWuGmL52Zz-196" target="IFNf2uhesNQWuGmL52Zz-197" edge="1">
          <mxGeometry relative="1" as="geometry">
            <mxPoint x="1048.04" y="157.00000000000023" as="sourcePoint" />
          </mxGeometry>
        </mxCell>
        <mxCell id="IFNf2uhesNQWuGmL52Zz-196" value="&lt;font color=&quot;#000000&quot;&gt;=&lt;/font&gt;" style="text;html=1;strokeColor=none;fillColor=none;align=center;verticalAlign=middle;whiteSpace=wrap;rounded=0;shadow=0;dashed=1;fontSize=15;fontColor=#00994D;" parent="1" vertex="1">
          <mxGeometry x="1018.04" y="142" width="20" height="30" as="geometry" />
        </mxCell>
        <mxCell id="IFNf2uhesNQWuGmL52Zz-203" style="edgeStyle=orthogonalEdgeStyle;rounded=0;orthogonalLoop=1;jettySize=auto;html=1;exitX=1;exitY=0.5;exitDx=0;exitDy=0;entryX=0;entryY=0.5;entryDx=0;entryDy=0;fontSize=15;fontColor=#000000;" parent="1" source="IFNf2uhesNQWuGmL52Zz-197" target="IFNf2uhesNQWuGmL52Zz-198" edge="1">
          <mxGeometry relative="1" as="geometry" />
        </mxCell>
        <mxCell id="IFNf2uhesNQWuGmL52Zz-197" value="CBS" style="rounded=1;whiteSpace=wrap;html=1;fillColor=#fff2cc;strokeColor=#000000;fontSize=13;" parent="1" vertex="1">
          <mxGeometry x="1068.04" y="142" width="50" height="30" as="geometry" />
        </mxCell>
        <mxCell id="IFNf2uhesNQWuGmL52Zz-204" style="edgeStyle=orthogonalEdgeStyle;rounded=0;orthogonalLoop=1;jettySize=auto;html=1;exitX=1;exitY=0.5;exitDx=0;exitDy=0;fontSize=15;fontColor=#000000;entryX=0;entryY=0.5;entryDx=0;entryDy=0;" parent="1" source="IFNf2uhesNQWuGmL52Zz-198" target="IFNf2uhesNQWuGmL52Zz-199" edge="1">
          <mxGeometry relative="1" as="geometry">
            <mxPoint x="1248.04" y="157.3157894736844" as="targetPoint" />
          </mxGeometry>
        </mxCell>
        <mxCell id="IFNf2uhesNQWuGmL52Zz-198" value="CABottleneck*X" style="rounded=1;whiteSpace=wrap;html=1;fillColor=#00CCCC;strokeColor=#000000;fontSize=13;" parent="1" vertex="1">
          <mxGeometry x="1138.04" y="142" width="95" height="30" as="geometry" />
        </mxCell>
        <mxCell id="IFNf2uhesNQWuGmL52Zz-205" style="edgeStyle=orthogonalEdgeStyle;rounded=0;orthogonalLoop=1;jettySize=auto;html=1;exitX=1;exitY=0.5;exitDx=0;exitDy=0;entryX=0;entryY=0.5;entryDx=0;entryDy=0;fontSize=15;fontColor=#000000;" parent="1" source="IFNf2uhesNQWuGmL52Zz-199" target="IFNf2uhesNQWuGmL52Zz-200" edge="1">
          <mxGeometry relative="1" as="geometry" />
        </mxCell>
        <mxCell id="IFNf2uhesNQWuGmL52Zz-199" value="Concat" style="rounded=1;whiteSpace=wrap;html=1;fillColor=#FFD966;strokeColor=#000000;" parent="1" vertex="1">
          <mxGeometry x="1252.04" y="142" width="80" height="30" as="geometry" />
        </mxCell>
        <mxCell id="IFNf2uhesNQWuGmL52Zz-206" style="edgeStyle=orthogonalEdgeStyle;rounded=0;orthogonalLoop=1;jettySize=auto;html=1;exitX=1;exitY=0.5;exitDx=0;exitDy=0;fontSize=15;fontColor=#000000;" parent="1" edge="1">
          <mxGeometry relative="1" as="geometry">
            <mxPoint x="1428.04" y="156.57000000000016" as="targetPoint" />
            <mxPoint x="1399.54" y="156.57000000000016" as="sourcePoint" />
          </mxGeometry>
        </mxCell>
        <mxCell id="IFNf2uhesNQWuGmL52Zz-200" value="CBS" style="rounded=1;whiteSpace=wrap;html=1;fillColor=#fff2cc;strokeColor=#000000;fontSize=13;" parent="1" vertex="1">
          <mxGeometry x="1349.54" y="142" width="50" height="30" as="geometry" />
        </mxCell>
        <mxCell id="IFNf2uhesNQWuGmL52Zz-210" style="edgeStyle=orthogonalEdgeStyle;rounded=0;orthogonalLoop=1;jettySize=auto;html=1;exitX=1;exitY=0.5;exitDx=0;exitDy=0;entryX=0.5;entryY=1;entryDx=0;entryDy=0;fontSize=15;fontColor=#000000;" parent="1" source="IFNf2uhesNQWuGmL52Zz-207" target="IFNf2uhesNQWuGmL52Zz-199" edge="1">
          <mxGeometry relative="1" as="geometry" />
        </mxCell>
        <mxCell id="IFNf2uhesNQWuGmL52Zz-207" value="CBS" style="rounded=1;whiteSpace=wrap;html=1;fillColor=#fff2cc;strokeColor=#000000;fontSize=13;" parent="1" vertex="1">
          <mxGeometry x="1160.54" y="192" width="50" height="30" as="geometry" />
        </mxCell>
        <mxCell id="IFNf2uhesNQWuGmL52Zz-209" value="" style="endArrow=classic;html=1;rounded=0;fontSize=15;fontColor=#000000;entryX=0;entryY=0.5;entryDx=0;entryDy=0;" parent="1" target="IFNf2uhesNQWuGmL52Zz-207" edge="1">
          <mxGeometry width="50" height="50" relative="1" as="geometry">
            <mxPoint x="1048.04" y="157" as="sourcePoint" />
            <mxPoint x="1160.54" y="202" as="targetPoint" />
            <Array as="points">
              <mxPoint x="1048.04" y="207" />
            </Array>
          </mxGeometry>
        </mxCell>
        <mxCell id="IFNf2uhesNQWuGmL52Zz-235" style="edgeStyle=orthogonalEdgeStyle;rounded=0;orthogonalLoop=1;jettySize=auto;html=1;exitX=1;exitY=0.5;exitDx=0;exitDy=0;entryX=0;entryY=0.5;entryDx=0;entryDy=0;fontSize=15;fontColor=#994C00;" parent="1" source="IFNf2uhesNQWuGmL52Zz-228" target="IFNf2uhesNQWuGmL52Zz-229" edge="1">
          <mxGeometry relative="1" as="geometry" />
        </mxCell>
        <mxCell id="IFNf2uhesNQWuGmL52Zz-228" value="&lt;font color=&quot;#000000&quot;&gt;=&lt;/font&gt;" style="text;html=1;strokeColor=none;fillColor=none;align=center;verticalAlign=middle;whiteSpace=wrap;rounded=0;shadow=0;dashed=1;fontSize=15;fontColor=#00994D;" parent="1" vertex="1">
          <mxGeometry x="1061.07" y="229.75" width="20" height="30" as="geometry" />
        </mxCell>
        <mxCell id="IFNf2uhesNQWuGmL52Zz-232" style="edgeStyle=orthogonalEdgeStyle;rounded=0;orthogonalLoop=1;jettySize=auto;html=1;exitX=1;exitY=0.5;exitDx=0;exitDy=0;entryX=0;entryY=0.5;entryDx=0;entryDy=0;fontSize=15;fontColor=#994C00;" parent="1" source="IFNf2uhesNQWuGmL52Zz-229" target="IFNf2uhesNQWuGmL52Zz-230" edge="1">
          <mxGeometry relative="1" as="geometry" />
        </mxCell>
        <mxCell id="IFNf2uhesNQWuGmL52Zz-229" value="CBS" style="rounded=1;whiteSpace=wrap;html=1;fillColor=#fff2cc;strokeColor=#000000;fontSize=13;" parent="1" vertex="1">
          <mxGeometry x="1105.06" y="229.75" width="50" height="30" as="geometry" />
        </mxCell>
        <mxCell id="HLplRHQwI1kbwizsAA59-7" style="edgeStyle=orthogonalEdgeStyle;rounded=0;orthogonalLoop=1;jettySize=auto;html=1;exitX=1;exitY=0.5;exitDx=0;exitDy=0;entryX=0;entryY=0.5;entryDx=0;entryDy=0;fontSize=15;fontColor=#FFFFFF;" parent="1" source="IFNf2uhesNQWuGmL52Zz-230" target="HLplRHQwI1kbwizsAA59-6" edge="1">
          <mxGeometry relative="1" as="geometry" />
        </mxCell>
        <mxCell id="IFNf2uhesNQWuGmL52Zz-230" value="CBS" style="rounded=1;whiteSpace=wrap;html=1;fillColor=#fff2cc;strokeColor=#000000;fontSize=13;" parent="1" vertex="1">
          <mxGeometry x="1170.06" y="229.75" width="50" height="30" as="geometry" />
        </mxCell>
        <mxCell id="HLplRHQwI1kbwizsAA59-12" value="" style="edgeStyle=orthogonalEdgeStyle;rounded=0;orthogonalLoop=1;jettySize=auto;html=1;fontSize=15;fontColor=#FFFFFF;" parent="1" source="IFNf2uhesNQWuGmL52Zz-231" edge="1">
          <mxGeometry relative="1" as="geometry">
            <mxPoint x="1370.5699999999997" y="244.75" as="targetPoint" />
          </mxGeometry>
        </mxCell>
        <mxCell id="IFNf2uhesNQWuGmL52Zz-231" value="" style="shape=orEllipse;perimeter=ellipsePerimeter;whiteSpace=wrap;html=1;backgroundOutline=1;rounded=1;shadow=0;fontSize=15;fontColor=#994C00;strokeColor=#000000;strokeWidth=2;fillColor=none;" parent="1" vertex="1">
          <mxGeometry x="1324.32" y="236" width="17.5" height="17.5" as="geometry" />
        </mxCell>
        <mxCell id="IFNf2uhesNQWuGmL52Zz-236" value="" style="endArrow=classic;html=1;rounded=0;fontSize=15;fontColor=#000000;entryX=0.5;entryY=1;entryDx=0;entryDy=0;" parent="1" target="IFNf2uhesNQWuGmL52Zz-231" edge="1">
          <mxGeometry width="50" height="50" relative="1" as="geometry">
            <mxPoint x="1091.07" y="244.75" as="sourcePoint" />
            <mxPoint x="1203.57" y="294.75" as="targetPoint" />
            <Array as="points">
              <mxPoint x="1091.07" y="279.75" />
              <mxPoint x="1171.07" y="279.75" />
              <mxPoint x="1332.82" y="279.75" />
            </Array>
          </mxGeometry>
        </mxCell>
        <mxCell id="IFNf2uhesNQWuGmL52Zz-258" value="&lt;span style=&quot;font-size: 15px;&quot;&gt;&lt;b style=&quot;&quot;&gt;&lt;font color=&quot;#ff8000&quot;&gt;CBS&lt;/font&gt;&lt;/b&gt;&lt;/span&gt;" style="text;html=1;strokeColor=none;fillColor=none;align=center;verticalAlign=middle;whiteSpace=wrap;rounded=0;shadow=0;dashed=1;" parent="1" vertex="1">
          <mxGeometry x="1175.0299999999997" y="298" width="60" height="30" as="geometry" />
        </mxCell>
        <mxCell id="IFNf2uhesNQWuGmL52Zz-283" value="&lt;span style=&quot;font-size: 15px;&quot;&gt;&lt;b style=&quot;&quot;&gt;&lt;font color=&quot;#ff3399&quot;&gt;SPPF&lt;/font&gt;&lt;/b&gt;&lt;/span&gt;" style="text;html=1;strokeColor=none;fillColor=none;align=center;verticalAlign=middle;whiteSpace=wrap;rounded=0;shadow=0;dashed=1;" parent="1" vertex="1">
          <mxGeometry x="770.78" y="810" width="60" height="30" as="geometry" />
        </mxCell>
        <mxCell id="IFNf2uhesNQWuGmL52Zz-287" value="&lt;font color=&quot;#ffffff&quot;&gt;C3CA_1&lt;/font&gt;" style="rounded=1;whiteSpace=wrap;html=1;fillColor=#6666FF;strokeColor=#000000;fontSize=13;" parent="1" vertex="1">
          <mxGeometry x="-45" y="258" width="50" height="30" as="geometry" />
        </mxCell>
        <mxCell id="HLplRHQwI1kbwizsAA59-14" style="edgeStyle=orthogonalEdgeStyle;rounded=0;orthogonalLoop=1;jettySize=auto;html=1;exitX=1;exitY=0.5;exitDx=0;exitDy=0;fontSize=15;fontColor=#FFFFFF;" parent="1" edge="1">
          <mxGeometry relative="1" as="geometry">
            <mxPoint x="300" y="490" as="targetPoint" />
            <Array as="points">
              <mxPoint x="40" y="375" />
              <mxPoint x="40" y="410" />
              <mxPoint x="240" y="410" />
              <mxPoint x="240" y="490" />
              <mxPoint x="300" y="490" />
            </Array>
            <mxPoint x="5" y="375" as="sourcePoint" />
          </mxGeometry>
        </mxCell>
        <mxCell id="HLplRHQwI1kbwizsAA59-1" value="&lt;font color=&quot;#ffffff&quot;&gt;C3CA_X&lt;/font&gt;" style="rounded=1;whiteSpace=wrap;html=1;fillColor=#6666FF;strokeColor=#000000;fontSize=13;" parent="1" vertex="1">
          <mxGeometry x="968.04" y="140" width="50" height="30" as="geometry" />
        </mxCell>
        <mxCell id="HLplRHQwI1kbwizsAA59-2" value="CABottleneck" style="rounded=1;whiteSpace=wrap;html=1;fillColor=#00CCCC;strokeColor=#000000;fontSize=13;" parent="1" vertex="1">
          <mxGeometry x="968.04" y="229.75" width="95" height="30" as="geometry" />
        </mxCell>
        <mxCell id="HLplRHQwI1kbwizsAA59-8" style="edgeStyle=orthogonalEdgeStyle;rounded=0;orthogonalLoop=1;jettySize=auto;html=1;exitX=1;exitY=0.5;exitDx=0;exitDy=0;entryX=0;entryY=0.5;entryDx=0;entryDy=0;fontSize=15;fontColor=#FFFFFF;" parent="1" source="HLplRHQwI1kbwizsAA59-6" target="IFNf2uhesNQWuGmL52Zz-231" edge="1">
          <mxGeometry relative="1" as="geometry" />
        </mxCell>
        <mxCell id="HLplRHQwI1kbwizsAA59-6" value="CA" style="rounded=1;whiteSpace=wrap;html=1;fillColor=#FFFFFF;strokeColor=#000000;fontSize=13;" parent="1" vertex="1">
          <mxGeometry x="1244.82" y="229.75" width="50" height="30" as="geometry" />
        </mxCell>
        <mxCell id="HLplRHQwI1kbwizsAA59-16" value="&lt;font color=&quot;#3399ff&quot; style=&quot;font-size: 10px;&quot;&gt;80*80*128&lt;/font&gt;" style="text;html=1;strokeColor=none;fillColor=none;align=center;verticalAlign=middle;whiteSpace=wrap;rounded=0;shadow=0;dashed=1;fontColor=#F19C99;" parent="1" vertex="1">
          <mxGeometry x="-10" y="562" width="60" height="30" as="geometry" />
        </mxCell>
        <mxCell id="HLplRHQwI1kbwizsAA59-17" value="&lt;font color=&quot;#3399ff&quot; style=&quot;font-size: 10px;&quot;&gt;40*40*256&lt;/font&gt;" style="text;html=1;strokeColor=none;fillColor=none;align=center;verticalAlign=middle;whiteSpace=wrap;rounded=0;shadow=0;dashed=1;fontColor=#F19C99;" parent="1" vertex="1">
          <mxGeometry x="5" y="340" width="60" height="30" as="geometry" />
        </mxCell>
        <mxCell id="HLplRHQwI1kbwizsAA59-19" value="" style="rounded=1;whiteSpace=wrap;html=1;shadow=0;dashed=1;fontSize=12;fontColor=#00994D;strokeColor=#999900;strokeWidth=2;fillColor=none;arcSize=7;" parent="1" vertex="1">
          <mxGeometry x="-95" y="830" width="155" height="140" as="geometry" />
        </mxCell>
        <mxCell id="HLplRHQwI1kbwizsAA59-20" value="&lt;span style=&quot;font-size: 15px;&quot;&gt;&lt;b style=&quot;&quot;&gt;&lt;font color=&quot;#999900&quot;&gt;Input&lt;/font&gt;&lt;/b&gt;&lt;/span&gt;" style="text;html=1;strokeColor=none;fillColor=none;align=center;verticalAlign=middle;whiteSpace=wrap;rounded=0;shadow=0;dashed=1;" parent="1" vertex="1">
          <mxGeometry x="-50" y="936.05" width="60" height="30" as="geometry" />
        </mxCell>
        <mxCell id="HLplRHQwI1kbwizsAA59-39" value="CA" style="rounded=1;whiteSpace=wrap;html=1;fillColor=#FFFFFF;strokeColor=#000000;fontSize=13;" parent="1" vertex="1">
          <mxGeometry x="368.04" y="702" width="50" height="30" as="geometry" />
        </mxCell>
        <mxCell id="HLplRHQwI1kbwizsAA59-40" value="&lt;font color=&quot;#000000&quot;&gt;=&lt;/font&gt;" style="text;html=1;strokeColor=none;fillColor=none;align=center;verticalAlign=middle;whiteSpace=wrap;rounded=0;shadow=0;dashed=1;fontSize=15;fontColor=#00994D;" parent="1" vertex="1">
          <mxGeometry x="418.04" y="702" width="20" height="30" as="geometry" />
        </mxCell>
        <mxCell id="HLplRHQwI1kbwizsAA59-41" style="edgeStyle=orthogonalEdgeStyle;rounded=0;orthogonalLoop=1;jettySize=auto;html=1;exitX=1;exitY=0.5;exitDx=0;exitDy=0;entryX=0;entryY=0.5;entryDx=0;entryDy=0;" parent="1" source="HLplRHQwI1kbwizsAA59-44" target="HLplRHQwI1kbwizsAA59-46" edge="1">
          <mxGeometry relative="1" as="geometry">
            <Array as="points">
              <mxPoint x="508.04" y="717" />
              <mxPoint x="508.04" y="675" />
            </Array>
          </mxGeometry>
        </mxCell>
        <mxCell id="HLplRHQwI1kbwizsAA59-42" style="edgeStyle=orthogonalEdgeStyle;rounded=0;orthogonalLoop=1;jettySize=auto;html=1;exitX=1;exitY=0.5;exitDx=0;exitDy=0;entryX=0;entryY=0.5;entryDx=0;entryDy=0;" parent="1" source="HLplRHQwI1kbwizsAA59-44" target="HLplRHQwI1kbwizsAA59-48" edge="1">
          <mxGeometry relative="1" as="geometry">
            <Array as="points">
              <mxPoint x="508.04" y="717" />
              <mxPoint x="508.04" y="755" />
            </Array>
          </mxGeometry>
        </mxCell>
        <mxCell id="HLplRHQwI1kbwizsAA59-43" style="edgeStyle=orthogonalEdgeStyle;rounded=0;orthogonalLoop=1;jettySize=auto;html=1;exitX=0.5;exitY=1;exitDx=0;exitDy=0;entryX=0.5;entryY=1;entryDx=0;entryDy=0;fontFamily=Helvetica;" parent="1" source="HLplRHQwI1kbwizsAA59-44" target="HLplRHQwI1kbwizsAA59-63" edge="1">
          <mxGeometry relative="1" as="geometry">
            <Array as="points">
              <mxPoint x="468.04" y="790" />
              <mxPoint x="1068.04" y="790" />
            </Array>
          </mxGeometry>
        </mxCell>
        <mxCell id="HLplRHQwI1kbwizsAA59-44" value="Residual" style="rounded=1;whiteSpace=wrap;html=1;fillColor=#d5e8d4;strokeColor=#82b366;fontSize=13;" parent="1" vertex="1">
          <mxGeometry x="438.04" y="702" width="60" height="30" as="geometry" />
        </mxCell>
        <mxCell id="HLplRHQwI1kbwizsAA59-45" style="edgeStyle=orthogonalEdgeStyle;rounded=0;orthogonalLoop=1;jettySize=auto;html=1;exitX=1;exitY=0.5;exitDx=0;exitDy=0;entryX=0;entryY=0.5;entryDx=0;entryDy=0;" parent="1" source="HLplRHQwI1kbwizsAA59-46" target="HLplRHQwI1kbwizsAA59-49" edge="1">
          <mxGeometry relative="1" as="geometry">
            <Array as="points">
              <mxPoint x="618.04" y="675" />
              <mxPoint x="618.04" y="715" />
            </Array>
          </mxGeometry>
        </mxCell>
        <mxCell id="HLplRHQwI1kbwizsAA59-46" value="X Avg Pool" style="rounded=1;whiteSpace=wrap;html=1;fillColor=#ffe6cc;strokeColor=#d79b00;" parent="1" vertex="1">
          <mxGeometry x="528.04" y="660" width="80" height="30" as="geometry" />
        </mxCell>
        <mxCell id="HLplRHQwI1kbwizsAA59-47" style="edgeStyle=orthogonalEdgeStyle;rounded=0;orthogonalLoop=1;jettySize=auto;html=1;exitX=1;exitY=0.5;exitDx=0;exitDy=0;entryX=0;entryY=0.5;entryDx=0;entryDy=0;" parent="1" source="HLplRHQwI1kbwizsAA59-48" target="HLplRHQwI1kbwizsAA59-49" edge="1">
          <mxGeometry relative="1" as="geometry">
            <Array as="points">
              <mxPoint x="618.04" y="755" />
              <mxPoint x="618.04" y="715" />
            </Array>
          </mxGeometry>
        </mxCell>
        <mxCell id="HLplRHQwI1kbwizsAA59-48" value="Y Avg Pool" style="rounded=1;whiteSpace=wrap;html=1;fillColor=#ffe6cc;strokeColor=#d79b00;" parent="1" vertex="1">
          <mxGeometry x="528.04" y="740" width="80" height="30" as="geometry" />
        </mxCell>
        <mxCell id="HLplRHQwI1kbwizsAA59-49" value="Concat" style="rounded=1;whiteSpace=wrap;html=1;fillColor=#FFD966;strokeColor=#000000;" parent="1" vertex="1">
          <mxGeometry x="638.04" y="700" width="60" height="30" as="geometry" />
        </mxCell>
        <mxCell id="HLplRHQwI1kbwizsAA59-50" style="edgeStyle=orthogonalEdgeStyle;rounded=0;orthogonalLoop=1;jettySize=auto;html=1;exitX=1;exitY=0.5;exitDx=0;exitDy=0;entryX=0;entryY=0.5;entryDx=0;entryDy=0;" parent="1" source="HLplRHQwI1kbwizsAA59-51" target="HLplRHQwI1kbwizsAA59-52" edge="1">
          <mxGeometry relative="1" as="geometry" />
        </mxCell>
        <mxCell id="HLplRHQwI1kbwizsAA59-51" value="Conv2d" style="rounded=1;whiteSpace=wrap;html=1;fillColor=#66CC00;strokeColor=#000000;" parent="1" vertex="1">
          <mxGeometry x="698.04" y="700" width="50" height="30" as="geometry" />
        </mxCell>
        <mxCell id="HLplRHQwI1kbwizsAA59-52" value="&lt;font color=&quot;#000000&quot;&gt;BN&lt;/font&gt;" style="rounded=1;whiteSpace=wrap;html=1;fillColor=#007FFF;strokeColor=#000000;fontColor=#ffffff;" parent="1" vertex="1">
          <mxGeometry x="768.04" y="700" width="50" height="30" as="geometry" />
        </mxCell>
        <mxCell id="HLplRHQwI1kbwizsAA59-53" style="edgeStyle=orthogonalEdgeStyle;rounded=0;orthogonalLoop=1;jettySize=auto;html=1;exitX=1;exitY=0.5;exitDx=0;exitDy=0;entryX=0;entryY=0.5;entryDx=0;entryDy=0;" parent="1" source="HLplRHQwI1kbwizsAA59-55" target="HLplRHQwI1kbwizsAA59-57" edge="1">
          <mxGeometry relative="1" as="geometry">
            <Array as="points">
              <mxPoint x="889.04" y="715" />
              <mxPoint x="889.04" y="755" />
            </Array>
          </mxGeometry>
        </mxCell>
        <mxCell id="HLplRHQwI1kbwizsAA59-54" style="edgeStyle=orthogonalEdgeStyle;rounded=0;orthogonalLoop=1;jettySize=auto;html=1;exitX=1;exitY=0.5;exitDx=0;exitDy=0;entryX=0.008;entryY=0.353;entryDx=0;entryDy=0;entryPerimeter=0;" parent="1" source="HLplRHQwI1kbwizsAA59-55" target="HLplRHQwI1kbwizsAA59-56" edge="1">
          <mxGeometry relative="1" as="geometry">
            <Array as="points">
              <mxPoint x="889.04" y="715" />
              <mxPoint x="889.04" y="671" />
            </Array>
          </mxGeometry>
        </mxCell>
        <mxCell id="HLplRHQwI1kbwizsAA59-55" value="&lt;font color=&quot;#000000&quot;&gt;Non-linear&lt;/font&gt;" style="rounded=1;whiteSpace=wrap;html=1;fillColor=#e1d5e7;strokeColor=#9673a6;" parent="1" vertex="1">
          <mxGeometry x="818.04" y="700" width="60" height="30" as="geometry" />
        </mxCell>
        <mxCell id="HLplRHQwI1kbwizsAA59-56" value="Conv2d" style="rounded=1;whiteSpace=wrap;html=1;fillColor=#66CC00;strokeColor=#000000;" parent="1" vertex="1">
          <mxGeometry x="909.04" y="660" width="50" height="30" as="geometry" />
        </mxCell>
        <mxCell id="HLplRHQwI1kbwizsAA59-57" value="Conv2d" style="rounded=1;whiteSpace=wrap;html=1;fillColor=#66CC00;strokeColor=#000000;" parent="1" vertex="1">
          <mxGeometry x="909.04" y="740" width="50" height="30" as="geometry" />
        </mxCell>
        <mxCell id="HLplRHQwI1kbwizsAA59-58" style="edgeStyle=orthogonalEdgeStyle;rounded=0;orthogonalLoop=1;jettySize=auto;html=1;exitX=1;exitY=0.5;exitDx=0;exitDy=0;entryX=0;entryY=0.5;entryDx=0;entryDy=0;" parent="1" source="HLplRHQwI1kbwizsAA59-59" target="HLplRHQwI1kbwizsAA59-63" edge="1">
          <mxGeometry relative="1" as="geometry">
            <Array as="points">
              <mxPoint x="1018.04" y="675" />
              <mxPoint x="1018.04" y="707" />
            </Array>
          </mxGeometry>
        </mxCell>
        <mxCell id="HLplRHQwI1kbwizsAA59-59" value="Sigmoid" style="rounded=1;whiteSpace=wrap;html=1;fillColor=#f8cecc;strokeColor=#b85450;" parent="1" vertex="1">
          <mxGeometry x="959.04" y="660" width="50" height="30" as="geometry" />
        </mxCell>
        <mxCell id="HLplRHQwI1kbwizsAA59-60" style="edgeStyle=orthogonalEdgeStyle;rounded=0;orthogonalLoop=1;jettySize=auto;html=1;exitX=1;exitY=0.5;exitDx=0;exitDy=0;entryX=0;entryY=0.5;entryDx=0;entryDy=0;" parent="1" source="HLplRHQwI1kbwizsAA59-61" target="HLplRHQwI1kbwizsAA59-63" edge="1">
          <mxGeometry relative="1" as="geometry">
            <Array as="points">
              <mxPoint x="1018.04" y="755" />
              <mxPoint x="1018.04" y="707" />
            </Array>
          </mxGeometry>
        </mxCell>
        <mxCell id="HLplRHQwI1kbwizsAA59-61" value="Sigmoid" style="rounded=1;whiteSpace=wrap;html=1;fillColor=#f8cecc;strokeColor=#b85450;" parent="1" vertex="1">
          <mxGeometry x="959.04" y="740" width="50" height="30" as="geometry" />
        </mxCell>
        <mxCell id="HLplRHQwI1kbwizsAA59-62" style="edgeStyle=orthogonalEdgeStyle;rounded=0;orthogonalLoop=1;jettySize=auto;html=1;exitX=1;exitY=0.5;exitDx=0;exitDy=0;" parent="1" source="HLplRHQwI1kbwizsAA59-63" edge="1">
          <mxGeometry relative="1" as="geometry">
            <mxPoint x="1118.0399999999995" y="707.0689655172414" as="targetPoint" />
          </mxGeometry>
        </mxCell>
        <mxCell id="HLplRHQwI1kbwizsAA59-63" value="&lt;font color=&quot;#000000&quot;&gt;Re-weight&lt;/font&gt;" style="rounded=1;whiteSpace=wrap;html=1;fillColor=#EA6B66;strokeColor=#9673a6;" parent="1" vertex="1">
          <mxGeometry x="1038.04" y="692" width="60" height="30" as="geometry" />
        </mxCell>
        <mxCell id="HLplRHQwI1kbwizsAA59-64" value="&lt;font color=&quot;#3399ff&quot;&gt;&lt;span style=&quot;font-size: 10px;&quot;&gt;C*H*W&lt;/span&gt;&lt;/font&gt;" style="text;html=1;strokeColor=none;fillColor=none;align=center;verticalAlign=middle;whiteSpace=wrap;rounded=0;shadow=0;dashed=1;fontColor=#F19C99;" parent="1" vertex="1">
          <mxGeometry x="443.04" y="680" width="50" height="22" as="geometry" />
        </mxCell>
        <mxCell id="HLplRHQwI1kbwizsAA59-65" value="&lt;font color=&quot;#3399ff&quot;&gt;&lt;span style=&quot;font-size: 10px;&quot;&gt;C*H*1&lt;/span&gt;&lt;/font&gt;" style="text;html=1;strokeColor=none;fillColor=none;align=center;verticalAlign=middle;whiteSpace=wrap;rounded=0;shadow=0;dashed=1;fontColor=#F19C99;" parent="1" vertex="1">
          <mxGeometry x="528.04" y="640" width="50" height="20" as="geometry" />
        </mxCell>
        <mxCell id="HLplRHQwI1kbwizsAA59-66" value="&lt;font color=&quot;#3399ff&quot;&gt;&lt;span style=&quot;font-size: 10px;&quot;&gt;C*1*W&lt;/span&gt;&lt;/font&gt;" style="text;html=1;strokeColor=none;fillColor=none;align=center;verticalAlign=middle;whiteSpace=wrap;rounded=0;shadow=0;dashed=1;fontColor=#F19C99;" parent="1" vertex="1">
          <mxGeometry x="535.04" y="770" width="43" height="20" as="geometry" />
        </mxCell>
        <mxCell id="HLplRHQwI1kbwizsAA59-67" value="&lt;font color=&quot;#3399ff&quot;&gt;&lt;span style=&quot;font-size: 10px;&quot;&gt;C/r *1*(W+H)&lt;/span&gt;&lt;/font&gt;" style="text;html=1;strokeColor=none;fillColor=none;align=center;verticalAlign=middle;whiteSpace=wrap;rounded=0;shadow=0;dashed=1;fontColor=#F19C99;" parent="1" vertex="1">
          <mxGeometry x="638.04" y="680" width="110" height="20" as="geometry" />
        </mxCell>
        <mxCell id="HLplRHQwI1kbwizsAA59-68" value="&lt;font color=&quot;#3399ff&quot;&gt;&lt;span style=&quot;font-size: 10px;&quot;&gt;C/r *1*(W+H)&lt;/span&gt;&lt;/font&gt;" style="text;html=1;strokeColor=none;fillColor=none;align=center;verticalAlign=middle;whiteSpace=wrap;rounded=0;shadow=0;dashed=1;fontColor=#F19C99;" parent="1" vertex="1">
          <mxGeometry x="768.04" y="680" width="110" height="20" as="geometry" />
        </mxCell>
        <mxCell id="HLplRHQwI1kbwizsAA59-69" value="&lt;font color=&quot;#3399ff&quot;&gt;&lt;span style=&quot;font-size: 10px;&quot;&gt;C*H*1&lt;/span&gt;&lt;/font&gt;" style="text;html=1;strokeColor=none;fillColor=none;align=center;verticalAlign=middle;whiteSpace=wrap;rounded=0;shadow=0;dashed=1;fontColor=#F19C99;" parent="1" vertex="1">
          <mxGeometry x="909.04" y="640" width="50" height="20" as="geometry" />
        </mxCell>
        <mxCell id="HLplRHQwI1kbwizsAA59-70" value="&lt;font color=&quot;#3399ff&quot;&gt;&lt;span style=&quot;font-size: 10px;&quot;&gt;C*H*1&lt;/span&gt;&lt;/font&gt;" style="text;html=1;strokeColor=none;fillColor=none;align=center;verticalAlign=middle;whiteSpace=wrap;rounded=0;shadow=0;dashed=1;fontColor=#F19C99;" parent="1" vertex="1">
          <mxGeometry x="959.04" y="640" width="50" height="20" as="geometry" />
        </mxCell>
        <mxCell id="HLplRHQwI1kbwizsAA59-71" value="&lt;font color=&quot;#3399ff&quot;&gt;&lt;span style=&quot;font-size: 10px;&quot;&gt;C*1*W&lt;/span&gt;&lt;/font&gt;" style="text;html=1;strokeColor=none;fillColor=none;align=center;verticalAlign=middle;whiteSpace=wrap;rounded=0;shadow=0;dashed=1;fontColor=#F19C99;" parent="1" vertex="1">
          <mxGeometry x="912.54" y="772" width="43" height="20" as="geometry" />
        </mxCell>
        <mxCell id="HLplRHQwI1kbwizsAA59-72" value="&lt;font color=&quot;#3399ff&quot;&gt;&lt;span style=&quot;font-size: 10px;&quot;&gt;C*1*W&lt;/span&gt;&lt;/font&gt;" style="text;html=1;strokeColor=none;fillColor=none;align=center;verticalAlign=middle;whiteSpace=wrap;rounded=0;shadow=0;dashed=1;fontColor=#F19C99;" parent="1" vertex="1">
          <mxGeometry x="962.54" y="772" width="43" height="20" as="geometry" />
        </mxCell>
        <mxCell id="HLplRHQwI1kbwizsAA59-73" value="&lt;font color=&quot;#3399ff&quot;&gt;&lt;span style=&quot;font-size: 10px;&quot;&gt;C*H*W&lt;/span&gt;&lt;/font&gt;" style="text;html=1;strokeColor=none;fillColor=none;align=center;verticalAlign=middle;whiteSpace=wrap;rounded=0;shadow=0;dashed=1;fontColor=#F19C99;" parent="1" vertex="1">
          <mxGeometry x="1043.04" y="670" width="50" height="22" as="geometry" />
        </mxCell>
        <mxCell id="HLplRHQwI1kbwizsAA59-75" value="&lt;font color=&quot;#003333&quot; style=&quot;font-size: 15px;&quot;&gt;&lt;b style=&quot;&quot;&gt;CA&lt;/b&gt;&lt;/font&gt;" style="text;html=1;strokeColor=none;fillColor=none;align=center;verticalAlign=middle;whiteSpace=wrap;rounded=0;shadow=0;dashed=1;" parent="1" vertex="1">
          <mxGeometry x="731.9899999999999" y="630" width="45.06" height="30" as="geometry" />
        </mxCell>
        <mxCell id="CK9dQ3o06qtgQGBDyu8h-27" value="C3_1_2" style="rounded=1;whiteSpace=wrap;html=1;fillColor=#99FFFF;strokeColor=#000000;fontSize=13;" vertex="1" parent="1">
          <mxGeometry x="-45" y="584" width="50" height="30" as="geometry" />
        </mxCell>
        <mxCell id="CK9dQ3o06qtgQGBDyu8h-29" value="" style="edgeStyle=orthogonalEdgeStyle;rounded=0;orthogonalLoop=1;jettySize=auto;html=1;exitX=0.5;exitY=0;exitDx=0;exitDy=0;entryX=0.5;entryY=1;entryDx=0;entryDy=0;fontSize=13;" edge="1" parent="1" source="IFNf2uhesNQWuGmL52Zz-15" target="CK9dQ3o06qtgQGBDyu8h-28">
          <mxGeometry relative="1" as="geometry">
            <mxPoint x="-20" y="390" as="targetPoint" />
            <mxPoint x="-20" y="484" as="sourcePoint" />
          </mxGeometry>
        </mxCell>
        <mxCell id="CK9dQ3o06qtgQGBDyu8h-28" value="C3_1_3" style="rounded=1;whiteSpace=wrap;html=1;fillColor=#99FFFF;strokeColor=#000000;fontSize=13;" vertex="1" parent="1">
          <mxGeometry x="-45" y="362" width="50" height="30" as="geometry" />
        </mxCell>
        <mxCell id="CK9dQ3o06qtgQGBDyu8h-30" value="" style="rounded=1;whiteSpace=wrap;html=1;shadow=0;dashed=1;fontSize=12;fontColor=#00994D;strokeColor=#66B2FF;strokeWidth=2;fillColor=none;arcSize=7;" vertex="1" parent="1">
          <mxGeometry x="959.41" y="430" width="477.27" height="190" as="geometry" />
        </mxCell>
        <mxCell id="CK9dQ3o06qtgQGBDyu8h-32" value="C3_1_X" style="rounded=1;whiteSpace=wrap;html=1;fillColor=#99FFFF;strokeColor=#000000;fontSize=13;" vertex="1" parent="1">
          <mxGeometry x="476.78" y="365" width="50" height="30" as="geometry" />
        </mxCell>
        <mxCell id="CK9dQ3o06qtgQGBDyu8h-33" style="edgeStyle=orthogonalEdgeStyle;rounded=0;orthogonalLoop=1;jettySize=auto;html=1;exitX=1;exitY=0.5;exitDx=0;exitDy=0;entryX=0;entryY=0.5;entryDx=0;entryDy=0;fontSize=15;fontColor=#000000;" edge="1" parent="1" source="CK9dQ3o06qtgQGBDyu8h-34" target="CK9dQ3o06qtgQGBDyu8h-36">
          <mxGeometry relative="1" as="geometry">
            <mxPoint x="556.78" y="380.0000000000002" as="sourcePoint" />
          </mxGeometry>
        </mxCell>
        <mxCell id="CK9dQ3o06qtgQGBDyu8h-34" value="&lt;font color=&quot;#000000&quot;&gt;=&lt;/font&gt;" style="text;html=1;strokeColor=none;fillColor=none;align=center;verticalAlign=middle;whiteSpace=wrap;rounded=0;shadow=0;dashed=1;fontSize=15;fontColor=#00994D;" vertex="1" parent="1">
          <mxGeometry x="526.78" y="365" width="20" height="30" as="geometry" />
        </mxCell>
        <mxCell id="CK9dQ3o06qtgQGBDyu8h-35" style="edgeStyle=orthogonalEdgeStyle;rounded=0;orthogonalLoop=1;jettySize=auto;html=1;exitX=1;exitY=0.5;exitDx=0;exitDy=0;entryX=0;entryY=0.5;entryDx=0;entryDy=0;fontSize=15;fontColor=#000000;" edge="1" parent="1" source="CK9dQ3o06qtgQGBDyu8h-36" target="CK9dQ3o06qtgQGBDyu8h-38">
          <mxGeometry relative="1" as="geometry" />
        </mxCell>
        <mxCell id="CK9dQ3o06qtgQGBDyu8h-36" value="CBS" style="rounded=1;whiteSpace=wrap;html=1;fillColor=#fff2cc;strokeColor=#000000;fontSize=13;" vertex="1" parent="1">
          <mxGeometry x="576.78" y="365" width="50" height="30" as="geometry" />
        </mxCell>
        <mxCell id="CK9dQ3o06qtgQGBDyu8h-37" style="edgeStyle=orthogonalEdgeStyle;rounded=0;orthogonalLoop=1;jettySize=auto;html=1;exitX=1;exitY=0.5;exitDx=0;exitDy=0;fontSize=15;fontColor=#000000;entryX=0;entryY=0.5;entryDx=0;entryDy=0;" edge="1" parent="1" source="CK9dQ3o06qtgQGBDyu8h-38" target="CK9dQ3o06qtgQGBDyu8h-40">
          <mxGeometry relative="1" as="geometry">
            <mxPoint x="756.78" y="380.3157894736844" as="targetPoint" />
          </mxGeometry>
        </mxCell>
        <mxCell id="CK9dQ3o06qtgQGBDyu8h-38" value="Bottleneck1*X" style="rounded=1;whiteSpace=wrap;html=1;fillColor=#99CCFF;strokeColor=#000000;fontSize=13;" vertex="1" parent="1">
          <mxGeometry x="646.78" y="365" width="95" height="30" as="geometry" />
        </mxCell>
        <mxCell id="CK9dQ3o06qtgQGBDyu8h-39" style="edgeStyle=orthogonalEdgeStyle;rounded=0;orthogonalLoop=1;jettySize=auto;html=1;exitX=1;exitY=0.5;exitDx=0;exitDy=0;entryX=0;entryY=0.5;entryDx=0;entryDy=0;fontSize=15;fontColor=#000000;" edge="1" parent="1" source="CK9dQ3o06qtgQGBDyu8h-40" target="CK9dQ3o06qtgQGBDyu8h-42">
          <mxGeometry relative="1" as="geometry" />
        </mxCell>
        <mxCell id="CK9dQ3o06qtgQGBDyu8h-40" value="Concat" style="rounded=1;whiteSpace=wrap;html=1;fillColor=#FFD966;strokeColor=#000000;" vertex="1" parent="1">
          <mxGeometry x="760.78" y="365" width="80" height="30" as="geometry" />
        </mxCell>
        <mxCell id="CK9dQ3o06qtgQGBDyu8h-41" style="edgeStyle=orthogonalEdgeStyle;rounded=0;orthogonalLoop=1;jettySize=auto;html=1;exitX=1;exitY=0.5;exitDx=0;exitDy=0;fontSize=15;fontColor=#000000;" edge="1" parent="1">
          <mxGeometry relative="1" as="geometry">
            <mxPoint x="936.78" y="379.5700000000003" as="targetPoint" />
            <mxPoint x="908.28" y="379.5700000000003" as="sourcePoint" />
          </mxGeometry>
        </mxCell>
        <mxCell id="CK9dQ3o06qtgQGBDyu8h-42" value="CBS" style="rounded=1;whiteSpace=wrap;html=1;fillColor=#fff2cc;strokeColor=#000000;fontSize=13;" vertex="1" parent="1">
          <mxGeometry x="858.28" y="365" width="50" height="30" as="geometry" />
        </mxCell>
        <mxCell id="CK9dQ3o06qtgQGBDyu8h-43" style="edgeStyle=orthogonalEdgeStyle;rounded=0;orthogonalLoop=1;jettySize=auto;html=1;exitX=1;exitY=0.5;exitDx=0;exitDy=0;entryX=0.5;entryY=1;entryDx=0;entryDy=0;fontSize=15;fontColor=#000000;" edge="1" parent="1" source="CK9dQ3o06qtgQGBDyu8h-44" target="CK9dQ3o06qtgQGBDyu8h-40">
          <mxGeometry relative="1" as="geometry" />
        </mxCell>
        <mxCell id="CK9dQ3o06qtgQGBDyu8h-44" value="CBS" style="rounded=1;whiteSpace=wrap;html=1;fillColor=#fff2cc;strokeColor=#000000;fontSize=13;" vertex="1" parent="1">
          <mxGeometry x="669.28" y="415" width="50" height="30" as="geometry" />
        </mxCell>
        <mxCell id="CK9dQ3o06qtgQGBDyu8h-45" value="" style="endArrow=classic;html=1;rounded=0;fontSize=15;fontColor=#000000;entryX=0;entryY=0.5;entryDx=0;entryDy=0;" edge="1" parent="1" target="CK9dQ3o06qtgQGBDyu8h-44">
          <mxGeometry width="50" height="50" relative="1" as="geometry">
            <mxPoint x="556.78" y="380" as="sourcePoint" />
            <mxPoint x="669.28" y="425" as="targetPoint" />
            <Array as="points">
              <mxPoint x="556.78" y="430" />
            </Array>
          </mxGeometry>
        </mxCell>
        <mxCell id="CK9dQ3o06qtgQGBDyu8h-46" style="edgeStyle=orthogonalEdgeStyle;rounded=0;orthogonalLoop=1;jettySize=auto;html=1;exitX=1;exitY=0.5;exitDx=0;exitDy=0;entryX=0;entryY=0.5;entryDx=0;entryDy=0;fontSize=15;fontColor=#000000;" edge="1" parent="1" source="CK9dQ3o06qtgQGBDyu8h-47" target="CK9dQ3o06qtgQGBDyu8h-49">
          <mxGeometry relative="1" as="geometry">
            <mxPoint x="553.25" y="509.0000000000002" as="sourcePoint" />
          </mxGeometry>
        </mxCell>
        <mxCell id="CK9dQ3o06qtgQGBDyu8h-47" value="&lt;font color=&quot;#000000&quot;&gt;=&lt;/font&gt;" style="text;html=1;strokeColor=none;fillColor=none;align=center;verticalAlign=middle;whiteSpace=wrap;rounded=0;shadow=0;dashed=1;fontSize=15;fontColor=#00994D;" vertex="1" parent="1">
          <mxGeometry x="523.25" y="494" width="20" height="30" as="geometry" />
        </mxCell>
        <mxCell id="CK9dQ3o06qtgQGBDyu8h-48" style="edgeStyle=orthogonalEdgeStyle;rounded=0;orthogonalLoop=1;jettySize=auto;html=1;exitX=1;exitY=0.5;exitDx=0;exitDy=0;entryX=0;entryY=0.5;entryDx=0;entryDy=0;fontSize=15;fontColor=#000000;" edge="1" parent="1" source="CK9dQ3o06qtgQGBDyu8h-49" target="CK9dQ3o06qtgQGBDyu8h-51">
          <mxGeometry relative="1" as="geometry" />
        </mxCell>
        <mxCell id="CK9dQ3o06qtgQGBDyu8h-49" value="CBS" style="rounded=1;whiteSpace=wrap;html=1;fillColor=#fff2cc;strokeColor=#000000;fontSize=13;" vertex="1" parent="1">
          <mxGeometry x="573.25" y="494" width="50" height="30" as="geometry" />
        </mxCell>
        <mxCell id="CK9dQ3o06qtgQGBDyu8h-50" style="edgeStyle=orthogonalEdgeStyle;rounded=0;orthogonalLoop=1;jettySize=auto;html=1;exitX=1;exitY=0.5;exitDx=0;exitDy=0;fontSize=15;fontColor=#000000;entryX=0;entryY=0.5;entryDx=0;entryDy=0;" edge="1" parent="1" source="CK9dQ3o06qtgQGBDyu8h-51" target="CK9dQ3o06qtgQGBDyu8h-53">
          <mxGeometry relative="1" as="geometry">
            <mxPoint x="753.25" y="509.3157894736844" as="targetPoint" />
          </mxGeometry>
        </mxCell>
        <mxCell id="CK9dQ3o06qtgQGBDyu8h-51" value="Bottleneck2*X" style="rounded=1;whiteSpace=wrap;html=1;fillColor=#99CCFF;strokeColor=#000000;fontSize=13;" vertex="1" parent="1">
          <mxGeometry x="643.25" y="494" width="95" height="30" as="geometry" />
        </mxCell>
        <mxCell id="CK9dQ3o06qtgQGBDyu8h-52" style="edgeStyle=orthogonalEdgeStyle;rounded=0;orthogonalLoop=1;jettySize=auto;html=1;exitX=1;exitY=0.5;exitDx=0;exitDy=0;entryX=0;entryY=0.5;entryDx=0;entryDy=0;fontSize=15;fontColor=#000000;" edge="1" parent="1" source="CK9dQ3o06qtgQGBDyu8h-53" target="CK9dQ3o06qtgQGBDyu8h-55">
          <mxGeometry relative="1" as="geometry" />
        </mxCell>
        <mxCell id="CK9dQ3o06qtgQGBDyu8h-53" value="Concat" style="rounded=1;whiteSpace=wrap;html=1;fillColor=#FFD966;strokeColor=#000000;" vertex="1" parent="1">
          <mxGeometry x="757.25" y="494" width="80" height="30" as="geometry" />
        </mxCell>
        <mxCell id="CK9dQ3o06qtgQGBDyu8h-54" style="edgeStyle=orthogonalEdgeStyle;rounded=0;orthogonalLoop=1;jettySize=auto;html=1;exitX=1;exitY=0.5;exitDx=0;exitDy=0;fontSize=15;fontColor=#000000;" edge="1" parent="1" source="CK9dQ3o06qtgQGBDyu8h-55">
          <mxGeometry relative="1" as="geometry">
            <mxPoint x="933.25" y="509.0000000000002" as="targetPoint" />
          </mxGeometry>
        </mxCell>
        <mxCell id="CK9dQ3o06qtgQGBDyu8h-55" value="CBS" style="rounded=1;whiteSpace=wrap;html=1;fillColor=#fff2cc;strokeColor=#000000;fontSize=13;" vertex="1" parent="1">
          <mxGeometry x="854.75" y="494" width="50" height="30" as="geometry" />
        </mxCell>
        <mxCell id="CK9dQ3o06qtgQGBDyu8h-56" style="edgeStyle=orthogonalEdgeStyle;rounded=0;orthogonalLoop=1;jettySize=auto;html=1;exitX=1;exitY=0.5;exitDx=0;exitDy=0;entryX=0.5;entryY=1;entryDx=0;entryDy=0;fontSize=15;fontColor=#000000;" edge="1" parent="1" source="CK9dQ3o06qtgQGBDyu8h-57" target="CK9dQ3o06qtgQGBDyu8h-53">
          <mxGeometry relative="1" as="geometry" />
        </mxCell>
        <mxCell id="CK9dQ3o06qtgQGBDyu8h-57" value="CBS" style="rounded=1;whiteSpace=wrap;html=1;fillColor=#fff2cc;strokeColor=#000000;fontSize=13;" vertex="1" parent="1">
          <mxGeometry x="665.75" y="544" width="50" height="30" as="geometry" />
        </mxCell>
        <mxCell id="CK9dQ3o06qtgQGBDyu8h-58" value="" style="endArrow=classic;html=1;rounded=0;fontSize=15;fontColor=#000000;entryX=0;entryY=0.5;entryDx=0;entryDy=0;" edge="1" parent="1" target="CK9dQ3o06qtgQGBDyu8h-57">
          <mxGeometry width="50" height="50" relative="1" as="geometry">
            <mxPoint x="553.25" y="509" as="sourcePoint" />
            <mxPoint x="665.75" y="554" as="targetPoint" />
            <Array as="points">
              <mxPoint x="553.25" y="559" />
            </Array>
          </mxGeometry>
        </mxCell>
        <mxCell id="CK9dQ3o06qtgQGBDyu8h-59" value="&lt;b style=&quot;&quot;&gt;&lt;font color=&quot;#994c00&quot; style=&quot;font-size: 15px;&quot;&gt;C3&lt;/font&gt;&lt;/b&gt;" style="text;html=1;strokeColor=none;fillColor=none;align=center;verticalAlign=middle;whiteSpace=wrap;rounded=0;shadow=0;dashed=1;" vertex="1" parent="1">
          <mxGeometry x="670.53" y="296" width="60" height="30" as="geometry" />
        </mxCell>
        <mxCell id="CK9dQ3o06qtgQGBDyu8h-60" value="Bottleneck1" style="rounded=1;whiteSpace=wrap;html=1;fillColor=#99CCFF;strokeColor=#000000;fontSize=13;" vertex="1" parent="1">
          <mxGeometry x="1038.8999999999999" y="484" width="95" height="30" as="geometry" />
        </mxCell>
        <mxCell id="CK9dQ3o06qtgQGBDyu8h-61" style="edgeStyle=orthogonalEdgeStyle;rounded=0;orthogonalLoop=1;jettySize=auto;html=1;exitX=1;exitY=0.5;exitDx=0;exitDy=0;entryX=0;entryY=0.5;entryDx=0;entryDy=0;fontSize=15;fontColor=#994C00;" edge="1" parent="1" source="CK9dQ3o06qtgQGBDyu8h-62" target="CK9dQ3o06qtgQGBDyu8h-64">
          <mxGeometry relative="1" as="geometry" />
        </mxCell>
        <mxCell id="CK9dQ3o06qtgQGBDyu8h-62" value="&lt;font color=&quot;#000000&quot;&gt;=&lt;/font&gt;" style="text;html=1;strokeColor=none;fillColor=none;align=center;verticalAlign=middle;whiteSpace=wrap;rounded=0;shadow=0;dashed=1;fontSize=15;fontColor=#00994D;" vertex="1" parent="1">
          <mxGeometry x="1133.8999999999999" y="484" width="20" height="30" as="geometry" />
        </mxCell>
        <mxCell id="CK9dQ3o06qtgQGBDyu8h-63" style="edgeStyle=orthogonalEdgeStyle;rounded=0;orthogonalLoop=1;jettySize=auto;html=1;exitX=1;exitY=0.5;exitDx=0;exitDy=0;entryX=0;entryY=0.5;entryDx=0;entryDy=0;fontSize=15;fontColor=#994C00;" edge="1" parent="1" source="CK9dQ3o06qtgQGBDyu8h-64" target="CK9dQ3o06qtgQGBDyu8h-66">
          <mxGeometry relative="1" as="geometry" />
        </mxCell>
        <mxCell id="CK9dQ3o06qtgQGBDyu8h-64" value="CBS" style="rounded=1;whiteSpace=wrap;html=1;fillColor=#fff2cc;strokeColor=#000000;fontSize=13;" vertex="1" parent="1">
          <mxGeometry x="1177.89" y="484" width="50" height="30" as="geometry" />
        </mxCell>
        <mxCell id="CK9dQ3o06qtgQGBDyu8h-65" style="edgeStyle=orthogonalEdgeStyle;rounded=0;orthogonalLoop=1;jettySize=auto;html=1;exitX=1;exitY=0.5;exitDx=0;exitDy=0;entryX=0;entryY=0.5;entryDx=0;entryDy=0;fontSize=15;fontColor=#994C00;" edge="1" parent="1" source="CK9dQ3o06qtgQGBDyu8h-66" target="CK9dQ3o06qtgQGBDyu8h-68">
          <mxGeometry relative="1" as="geometry" />
        </mxCell>
        <mxCell id="CK9dQ3o06qtgQGBDyu8h-66" value="CBS" style="rounded=1;whiteSpace=wrap;html=1;fillColor=#fff2cc;strokeColor=#000000;fontSize=13;" vertex="1" parent="1">
          <mxGeometry x="1242.89" y="484" width="50" height="30" as="geometry" />
        </mxCell>
        <mxCell id="CK9dQ3o06qtgQGBDyu8h-67" style="edgeStyle=orthogonalEdgeStyle;rounded=0;orthogonalLoop=1;jettySize=auto;html=1;exitX=1;exitY=0.5;exitDx=0;exitDy=0;fontSize=15;fontColor=#994C00;" edge="1" parent="1" source="CK9dQ3o06qtgQGBDyu8h-68">
          <mxGeometry relative="1" as="geometry">
            <mxPoint x="1362.89" y="499.39130434782624" as="targetPoint" />
          </mxGeometry>
        </mxCell>
        <mxCell id="CK9dQ3o06qtgQGBDyu8h-68" value="" style="shape=orEllipse;perimeter=ellipsePerimeter;whiteSpace=wrap;html=1;backgroundOutline=1;rounded=1;shadow=0;fontSize=15;fontColor=#994C00;strokeColor=#000000;strokeWidth=2;fillColor=none;" vertex="1" parent="1">
          <mxGeometry x="1314.39" y="490.25" width="17.5" height="17.5" as="geometry" />
        </mxCell>
        <mxCell id="CK9dQ3o06qtgQGBDyu8h-69" value="" style="endArrow=classic;html=1;rounded=0;fontSize=15;fontColor=#000000;entryX=0.5;entryY=1;entryDx=0;entryDy=0;" edge="1" parent="1" target="CK9dQ3o06qtgQGBDyu8h-68">
          <mxGeometry width="50" height="50" relative="1" as="geometry">
            <mxPoint x="1163.8999999999999" y="499" as="sourcePoint" />
            <mxPoint x="1276.3999999999999" y="549" as="targetPoint" />
            <Array as="points">
              <mxPoint x="1163.8999999999999" y="534" />
              <mxPoint x="1243.8999999999999" y="534" />
              <mxPoint x="1322.8999999999999" y="534" />
            </Array>
          </mxGeometry>
        </mxCell>
        <mxCell id="CK9dQ3o06qtgQGBDyu8h-70" value="Bottleneck2" style="rounded=1;whiteSpace=wrap;html=1;fillColor=#99CCFF;strokeColor=#000000;fontSize=13;" vertex="1" parent="1">
          <mxGeometry x="1038.9" y="564" width="95" height="30" as="geometry" />
        </mxCell>
        <mxCell id="CK9dQ3o06qtgQGBDyu8h-71" style="edgeStyle=orthogonalEdgeStyle;rounded=0;orthogonalLoop=1;jettySize=auto;html=1;exitX=1;exitY=0.5;exitDx=0;exitDy=0;entryX=0;entryY=0.5;entryDx=0;entryDy=0;fontSize=15;fontColor=#994C00;" edge="1" parent="1" source="CK9dQ3o06qtgQGBDyu8h-72" target="CK9dQ3o06qtgQGBDyu8h-74">
          <mxGeometry relative="1" as="geometry" />
        </mxCell>
        <mxCell id="CK9dQ3o06qtgQGBDyu8h-72" value="&lt;font color=&quot;#000000&quot;&gt;=&lt;/font&gt;" style="text;html=1;strokeColor=none;fillColor=none;align=center;verticalAlign=middle;whiteSpace=wrap;rounded=0;shadow=0;dashed=1;fontSize=15;fontColor=#00994D;" vertex="1" parent="1">
          <mxGeometry x="1133.9" y="564" width="20" height="30" as="geometry" />
        </mxCell>
        <mxCell id="CK9dQ3o06qtgQGBDyu8h-73" style="edgeStyle=orthogonalEdgeStyle;rounded=0;orthogonalLoop=1;jettySize=auto;html=1;exitX=1;exitY=0.5;exitDx=0;exitDy=0;entryX=0;entryY=0.5;entryDx=0;entryDy=0;fontSize=15;fontColor=#994C00;" edge="1" parent="1" source="CK9dQ3o06qtgQGBDyu8h-74" target="CK9dQ3o06qtgQGBDyu8h-76">
          <mxGeometry relative="1" as="geometry" />
        </mxCell>
        <mxCell id="CK9dQ3o06qtgQGBDyu8h-74" value="CBS" style="rounded=1;whiteSpace=wrap;html=1;fillColor=#fff2cc;strokeColor=#000000;fontSize=13;" vertex="1" parent="1">
          <mxGeometry x="1177.8899999999999" y="564" width="50" height="30" as="geometry" />
        </mxCell>
        <mxCell id="CK9dQ3o06qtgQGBDyu8h-75" style="edgeStyle=orthogonalEdgeStyle;rounded=0;orthogonalLoop=1;jettySize=auto;html=1;exitX=1;exitY=0.5;exitDx=0;exitDy=0;fontSize=15;fontColor=#994C00;" edge="1" parent="1" source="CK9dQ3o06qtgQGBDyu8h-76">
          <mxGeometry relative="1" as="geometry">
            <mxPoint x="1361.9299999999998" y="579" as="targetPoint" />
          </mxGeometry>
        </mxCell>
        <mxCell id="CK9dQ3o06qtgQGBDyu8h-76" value="CBS" style="rounded=1;whiteSpace=wrap;html=1;fillColor=#fff2cc;strokeColor=#000000;fontSize=13;" vertex="1" parent="1">
          <mxGeometry x="1242.8899999999999" y="564" width="50" height="30" as="geometry" />
        </mxCell>
        <mxCell id="CK9dQ3o06qtgQGBDyu8h-77" value="&lt;font color=&quot;#66b2ff&quot; style=&quot;font-size: 15px;&quot;&gt;&lt;b style=&quot;&quot;&gt;Bottleneck&lt;/b&gt;&lt;/font&gt;" style="text;html=1;strokeColor=none;fillColor=none;align=center;verticalAlign=middle;whiteSpace=wrap;rounded=0;shadow=0;dashed=1;" vertex="1" parent="1">
          <mxGeometry x="1151.3999999999996" y="430" width="98.99" height="30" as="geometry" />
        </mxCell>
        <mxCell id="CK9dQ3o06qtgQGBDyu8h-78" value="C3_2_X" style="rounded=1;whiteSpace=wrap;html=1;fillColor=#F19C99;strokeColor=#000000;fontSize=13;" vertex="1" parent="1">
          <mxGeometry x="475.75" y="495" width="50" height="30" as="geometry" />
        </mxCell>
        <mxCell id="CK9dQ3o06qtgQGBDyu8h-109" value="&lt;b style=&quot;&quot;&gt;&lt;font color=&quot;#6666ff&quot; style=&quot;font-size: 15px;&quot;&gt;C3CA&lt;/font&gt;&lt;/b&gt;" style="text;html=1;strokeColor=none;fillColor=none;align=center;verticalAlign=middle;whiteSpace=wrap;rounded=0;shadow=0;dashed=1;" vertex="1" parent="1">
          <mxGeometry x="1175.03" y="105" width="60" height="30" as="geometry" />
        </mxCell>
        <mxCell id="CK9dQ3o06qtgQGBDyu8h-147" value="SPPF" style="rounded=1;whiteSpace=wrap;html=1;fillColor=#99FFCC;strokeColor=#000000;fontSize=13;" vertex="1" parent="1">
          <mxGeometry x="343.37" y="893.95" width="50" height="30" as="geometry" />
        </mxCell>
        <mxCell id="CK9dQ3o06qtgQGBDyu8h-148" style="edgeStyle=orthogonalEdgeStyle;rounded=0;orthogonalLoop=1;jettySize=auto;html=1;exitX=1;exitY=0.5;exitDx=0;exitDy=0;entryX=0;entryY=0.5;entryDx=0;entryDy=0;fontSize=15;fontColor=#66B2FF;" edge="1" parent="1" source="CK9dQ3o06qtgQGBDyu8h-149" target="CK9dQ3o06qtgQGBDyu8h-152">
          <mxGeometry relative="1" as="geometry" />
        </mxCell>
        <mxCell id="CK9dQ3o06qtgQGBDyu8h-149" value="&lt;font color=&quot;#000000&quot;&gt;=&lt;/font&gt;" style="text;html=1;strokeColor=none;fillColor=none;align=center;verticalAlign=middle;whiteSpace=wrap;rounded=0;shadow=0;dashed=1;fontSize=15;fontColor=#00994D;" vertex="1" parent="1">
          <mxGeometry x="396.62" y="893.95" width="18.5" height="30" as="geometry" />
        </mxCell>
        <mxCell id="CK9dQ3o06qtgQGBDyu8h-150" style="edgeStyle=orthogonalEdgeStyle;rounded=0;orthogonalLoop=1;jettySize=auto;html=1;exitX=1;exitY=0.5;exitDx=0;exitDy=0;entryX=0;entryY=0.5;entryDx=0;entryDy=0;fontSize=15;fontColor=#66B2FF;" edge="1" parent="1" source="CK9dQ3o06qtgQGBDyu8h-152" target="CK9dQ3o06qtgQGBDyu8h-155">
          <mxGeometry relative="1" as="geometry" />
        </mxCell>
        <mxCell id="CK9dQ3o06qtgQGBDyu8h-151" style="edgeStyle=orthogonalEdgeStyle;rounded=0;orthogonalLoop=1;jettySize=auto;html=1;exitX=1;exitY=0.5;exitDx=0;exitDy=0;fontSize=15;fontColor=#66B2FF;" edge="1" parent="1" source="CK9dQ3o06qtgQGBDyu8h-152">
          <mxGeometry relative="1" as="geometry">
            <mxPoint x="953.37" y="934" as="targetPoint" />
            <Array as="points">
              <mxPoint x="533.37" y="909" />
              <mxPoint x="533.37" y="934" />
            </Array>
          </mxGeometry>
        </mxCell>
        <mxCell id="CK9dQ3o06qtgQGBDyu8h-152" value="CBS" style="rounded=1;whiteSpace=wrap;html=1;fillColor=#fff2cc;strokeColor=#000000;fontSize=13;" vertex="1" parent="1">
          <mxGeometry x="459.13" y="893.95" width="50" height="30" as="geometry" />
        </mxCell>
        <mxCell id="CK9dQ3o06qtgQGBDyu8h-153" style="edgeStyle=orthogonalEdgeStyle;rounded=0;orthogonalLoop=1;jettySize=auto;html=1;exitX=1;exitY=0.5;exitDx=0;exitDy=0;entryX=0;entryY=0.5;entryDx=0;entryDy=0;fontSize=15;fontColor=#66B2FF;" edge="1" parent="1" source="CK9dQ3o06qtgQGBDyu8h-155" target="CK9dQ3o06qtgQGBDyu8h-158">
          <mxGeometry relative="1" as="geometry" />
        </mxCell>
        <mxCell id="CK9dQ3o06qtgQGBDyu8h-155" value="MaxPool" style="rounded=1;whiteSpace=wrap;html=1;fillColor=#FF99FF;strokeColor=#000000;" vertex="1" parent="1">
          <mxGeometry x="571.37" y="893.95" width="80" height="30" as="geometry" />
        </mxCell>
        <mxCell id="CK9dQ3o06qtgQGBDyu8h-158" value="MaxPool" style="rounded=1;whiteSpace=wrap;html=1;fillColor=#FF99FF;strokeColor=#000000;" vertex="1" parent="1">
          <mxGeometry x="699.5000000000001" y="893.95" width="80" height="30" as="geometry" />
        </mxCell>
        <mxCell id="CK9dQ3o06qtgQGBDyu8h-160" value="MaxPool" style="rounded=1;whiteSpace=wrap;html=1;fillColor=#FF99FF;strokeColor=#000000;" vertex="1" parent="1">
          <mxGeometry x="826.62" y="893.95" width="80" height="30" as="geometry" />
        </mxCell>
        <mxCell id="CK9dQ3o06qtgQGBDyu8h-161" style="edgeStyle=orthogonalEdgeStyle;rounded=0;orthogonalLoop=1;jettySize=auto;html=1;exitX=1;exitY=0.5;exitDx=0;exitDy=0;entryX=0;entryY=0.5;entryDx=0;entryDy=0;fontSize=15;fontColor=#66B2FF;" edge="1" parent="1" source="CK9dQ3o06qtgQGBDyu8h-162" target="CK9dQ3o06qtgQGBDyu8h-164">
          <mxGeometry relative="1" as="geometry" />
        </mxCell>
        <mxCell id="CK9dQ3o06qtgQGBDyu8h-162" value="Concat" style="rounded=1;whiteSpace=wrap;html=1;fillColor=#FFD966;strokeColor=#000000;" vertex="1" parent="1">
          <mxGeometry x="954.12" y="830" width="80" height="130" as="geometry" />
        </mxCell>
        <mxCell id="CK9dQ3o06qtgQGBDyu8h-164" value="CBS" style="rounded=1;whiteSpace=wrap;html=1;fillColor=#fff2cc;strokeColor=#000000;fontSize=13;" vertex="1" parent="1">
          <mxGeometry x="1083.37" y="880" width="50" height="30" as="geometry" />
        </mxCell>
        <mxCell id="CK9dQ3o06qtgQGBDyu8h-183" style="edgeStyle=orthogonalEdgeStyle;rounded=0;orthogonalLoop=1;jettySize=auto;html=1;exitX=1;exitY=0.5;exitDx=0;exitDy=0;entryX=0;entryY=0.5;entryDx=0;entryDy=0;fontSize=15;fontColor=#66B2FF;" edge="1" parent="1" source="CK9dQ3o06qtgQGBDyu8h-158" target="CK9dQ3o06qtgQGBDyu8h-160">
          <mxGeometry relative="1" as="geometry">
            <mxPoint x="780.12" y="909.23" as="sourcePoint" />
            <mxPoint x="828.12" y="909.23" as="targetPoint" />
          </mxGeometry>
        </mxCell>
        <mxCell id="CK9dQ3o06qtgQGBDyu8h-184" style="edgeStyle=orthogonalEdgeStyle;rounded=0;orthogonalLoop=1;jettySize=auto;html=1;exitX=1;exitY=0.5;exitDx=0;exitDy=0;entryX=0;entryY=0.5;entryDx=0;entryDy=0;fontSize=15;fontColor=#66B2FF;" edge="1" parent="1">
          <mxGeometry relative="1" as="geometry">
            <mxPoint x="906.62" y="908.73" as="sourcePoint" />
            <mxPoint x="953.62" y="908.73" as="targetPoint" />
          </mxGeometry>
        </mxCell>
        <mxCell id="CK9dQ3o06qtgQGBDyu8h-185" style="edgeStyle=orthogonalEdgeStyle;rounded=0;orthogonalLoop=1;jettySize=auto;html=1;exitX=1;exitY=0.5;exitDx=0;exitDy=0;entryX=-0.002;entryY=0.38;entryDx=0;entryDy=0;entryPerimeter=0;fontSize=15;fontColor=#66B2FF;" edge="1" parent="1" source="CK9dQ3o06qtgQGBDyu8h-158" target="CK9dQ3o06qtgQGBDyu8h-162">
          <mxGeometry relative="1" as="geometry">
            <mxPoint x="918.5099999999999" y="867.2000000000003" as="targetPoint" />
            <Array as="points">
              <mxPoint x="803.37" y="909" />
              <mxPoint x="803.37" y="880" />
              <mxPoint x="918.37" y="880" />
            </Array>
            <mxPoint x="661.37" y="919" as="sourcePoint" />
          </mxGeometry>
        </mxCell>
        <mxCell id="CK9dQ3o06qtgQGBDyu8h-186" style="edgeStyle=orthogonalEdgeStyle;rounded=0;orthogonalLoop=1;jettySize=auto;html=1;exitX=1;exitY=0.5;exitDx=0;exitDy=0;entryX=0;entryY=0.5;entryDx=0;entryDy=0;fontSize=15;fontColor=#66B2FF;" edge="1" parent="1">
          <mxGeometry relative="1" as="geometry">
            <mxPoint x="1133.37" y="893.3" as="sourcePoint" />
            <mxPoint x="1182.37" y="893.3" as="targetPoint" />
          </mxGeometry>
        </mxCell>
        <mxCell id="CK9dQ3o06qtgQGBDyu8h-187" style="edgeStyle=orthogonalEdgeStyle;rounded=0;orthogonalLoop=1;jettySize=auto;html=1;exitX=1;exitY=0.5;exitDx=0;exitDy=0;fontSize=15;fontColor=#66B2FF;" edge="1" parent="1">
          <mxGeometry relative="1" as="geometry">
            <mxPoint x="953.37" y="851" as="targetPoint" />
            <Array as="points">
              <mxPoint x="673.37" y="910" />
              <mxPoint x="673.37" y="851" />
            </Array>
            <mxPoint x="651.37" y="909.95" as="sourcePoint" />
          </mxGeometry>
        </mxCell>
      </root>
    </mxGraphModel>
  </diagram>
</mxfile>
